<?xml version="1.0" encoding="utf-8" standalone="no"?>
<!DOCTYPE svg PUBLIC "-//W3C//DTD SVG 1.1//EN"
  "http://www.w3.org/Graphics/SVG/1.1/DTD/svg11.dtd">
<svg xmlns:xlink="http://www.w3.org/1999/xlink" width="461.736pt" height="101.376pt" viewBox="0 0 461.736 101.376" xmlns="http://www.w3.org/2000/svg" version="1.1">
 <metadata>
  <rdf:RDF xmlns:dc="http://purl.org/dc/elements/1.1/" xmlns:cc="http://creativecommons.org/ns#" xmlns:rdf="http://www.w3.org/1999/02/22-rdf-syntax-ns#">
   <cc:Work>
    <dc:type rdf:resource="http://purl.org/dc/dcmitype/StillImage"/>
    <dc:date>2026-04-05T15:43:35.870051</dc:date>
    <dc:format>image/svg+xml</dc:format>
    <dc:creator>
     <cc:Agent>
      <dc:title>Matplotlib v3.9.4, https://matplotlib.org/</dc:title>
     </cc:Agent>
    </dc:creator>
   </cc:Work>
  </rdf:RDF>
 </metadata>
 <defs>
  <style type="text/css">*{stroke-linejoin: round; stroke-linecap: butt}</style>
 </defs>
 <g id="figure_1">
  <g id="patch_1">
   <path d="M 0 101.376 
L 461.736 101.376 
L 461.736 0 
L 0 0 
L 0 101.376 
z
" style="fill: none"/>
  </g>
  <g id="axes_1">
   <g id="line2d_1">
    <path d="M 5.148 96.228 
L 119.988 96.228 
L 119.988 5.148 
L 5.148 5.148 
L 5.148 96.228 
" clip-path="url(#p4a1be7d023)" style="fill: none; stroke: #000000; stroke-width: 2; stroke-linecap: round"/>
   </g>
   <g id="line2d_2">
    <path d="M 119.988 62.568 
L 139.788 62.568 
" clip-path="url(#p4a1be7d023)" style="fill: none; stroke: #000000; stroke-width: 2; stroke-linecap: round"/>
   </g>
   <g id="line2d_3">
    <path d="M 119.988 38.808 
L 139.788 38.808 
" clip-path="url(#p4a1be7d023)" style="fill: none; stroke: #000000; stroke-width: 2; stroke-linecap: round"/>
   </g>
   <g id="line2d_4">
    <path d="M 139.788 62.568 
L 298.188 62.568 
L 456.588 62.568 
" clip-path="url(#p4a1be7d023)" style="fill: none; stroke: #000000; stroke-width: 2; stroke-linecap: round"/>
   </g>
   <g id="line2d_5">
    <path d="M 139.788 38.808 
L 298.188 38.808 
L 456.588 38.808 
" clip-path="url(#p4a1be7d023)" style="fill: none; stroke: #000000; stroke-width: 2; stroke-linecap: round"/>
   </g>
   <g id="line2d_6">
    <path d="M 187.308 62.568 
M 197.208 62.568 
L 177.408 62.568 
M 197.208 69.696 
L 177.408 69.696 
M 187.308 69.696 
" clip-path="url(#p4a1be7d023)" style="fill: none; stroke: #000000; stroke-width: 2; stroke-linecap: round"/>
   </g>
   <g id="line2d_7">
    <path d="M 238.788 62.568 
L 238.788 46.728 
L 238.788 30.888 
" clip-path="url(#p4a1be7d023)" style="fill: none; stroke: #000000; stroke-width: 2; stroke-linecap: round"/>
   </g>
   <g id="line2d_8">
    <path d="M 238.788 38.808 
L 238.788 54.648 
L 238.788 70.488 
" clip-path="url(#p4a1be7d023)" style="fill: none; stroke: #000000; stroke-width: 2; stroke-linecap: round"/>
   </g>
   <g id="line2d_9">
    <path d="M 270.468 62.568 
M 280.368 62.568 
L 260.568 62.568 
M 280.368 69.696 
L 260.568 69.696 
M 270.468 69.696 
" clip-path="url(#p4a1be7d023)" style="fill: none; stroke: #000000; stroke-width: 2; stroke-linecap: round"/>
   </g>
   <g id="line2d_10">
    <path d="M 337.788 62.568 
L 337.788 46.728 
L 337.788 30.888 
" clip-path="url(#p4a1be7d023)" style="fill: none; stroke: #000000; stroke-width: 2; stroke-linecap: round"/>
   </g>
   <g id="line2d_11">
    <path d="M 337.788 38.808 
L 337.788 54.648 
L 337.788 70.488 
" clip-path="url(#p4a1be7d023)" style="fill: none; stroke: #000000; stroke-width: 2; stroke-linecap: round"/>
   </g>
   <g id="line2d_12">
    <path d="M 369.468 62.568 
M 379.368 62.568 
L 359.568 62.568 
M 379.368 69.696 
L 359.568 69.696 
M 369.468 69.696 
" clip-path="url(#p4a1be7d023)" style="fill: none; stroke: #000000; stroke-width: 2; stroke-linecap: round"/>
   </g>
   <g id="line2d_13">
    <path d="M 424.908 62.568 
L 424.908 46.728 
L 424.908 30.888 
" clip-path="url(#p4a1be7d023)" style="fill: none; stroke: #000000; stroke-width: 2; stroke-linecap: round"/>
   </g>
   <g id="line2d_14">
    <path d="M 424.908 38.808 
L 424.908 54.648 
L 424.908 70.488 
" clip-path="url(#p4a1be7d023)" style="fill: none; stroke: #000000; stroke-width: 2; stroke-linecap: round"/>
   </g>
   <g id="text_1">
    <!-- + -->
    <g transform="translate(102.316438 66.431125) scale(0.14 -0.14)">
     <defs>
      <path id="DejaVuSans-2b" d="M 2944 4013 
L 2944 2272 
L 4684 2272 
L 4684 1741 
L 2944 1741 
L 2944 0 
L 2419 0 
L 2419 1741 
L 678 1741 
L 678 2272 
L 2419 2272 
L 2419 4013 
L 2944 4013 
z
" transform="scale(0.015625)"/>
     </defs>
     <use xlink:href="#DejaVuSans-2b"/>
    </g>
   </g>
   <g id="text_2">
    <!-- GND -->
    <g transform="translate(81.946438 42.671125) scale(0.14 -0.14)">
     <defs>
      <path id="DejaVuSans-47" d="M 3809 666 
L 3809 1919 
L 2778 1919 
L 2778 2438 
L 4434 2438 
L 4434 434 
Q 4069 175 3628 42 
Q 3188 -91 2688 -91 
Q 1594 -91 976 548 
Q 359 1188 359 2328 
Q 359 3472 976 4111 
Q 1594 4750 2688 4750 
Q 3144 4750 3555 4637 
Q 3966 4525 4313 4306 
L 4313 3634 
Q 3963 3931 3569 4081 
Q 3175 4231 2741 4231 
Q 1884 4231 1454 3753 
Q 1025 3275 1025 2328 
Q 1025 1384 1454 906 
Q 1884 428 2741 428 
Q 3075 428 3337 486 
Q 3600 544 3809 666 
z
" transform="scale(0.015625)"/>
      <path id="DejaVuSans-4e" d="M 628 4666 
L 1478 4666 
L 3547 763 
L 3547 4666 
L 4159 4666 
L 4159 0 
L 3309 0 
L 1241 3903 
L 1241 0 
L 628 0 
L 628 4666 
z
" transform="scale(0.015625)"/>
      <path id="DejaVuSans-44" d="M 1259 4147 
L 1259 519 
L 2022 519 
Q 2988 519 3436 956 
Q 3884 1394 3884 2338 
Q 3884 3275 3436 3711 
Q 2988 4147 2022 4147 
L 1259 4147 
z
M 628 4666 
L 1925 4666 
Q 3281 4666 3915 4102 
Q 4550 3538 4550 2338 
Q 4550 1131 3912 565 
Q 3275 0 1925 0 
L 628 0 
L 628 4666 
z
" transform="scale(0.015625)"/>
     </defs>
     <use xlink:href="#DejaVuSans-47"/>
     <use xlink:href="#DejaVuSans-4e" x="77.490234"/>
     <use xlink:href="#DejaVuSans-44" x="152.294922"/>
    </g>
   </g>
   <g id="text_3">
    <!-- 5.5/2.1mm -->
    <g transform="translate(44.6655 45.06425) scale(0.08 -0.08)">
     <defs>
      <path id="DejaVuSans-35" d="M 691 4666 
L 3169 4666 
L 3169 4134 
L 1269 4134 
L 1269 2991 
Q 1406 3038 1543 3061 
Q 1681 3084 1819 3084 
Q 2600 3084 3056 2656 
Q 3513 2228 3513 1497 
Q 3513 744 3044 326 
Q 2575 -91 1722 -91 
Q 1428 -91 1123 -41 
Q 819 9 494 109 
L 494 744 
Q 775 591 1075 516 
Q 1375 441 1709 441 
Q 2250 441 2565 725 
Q 2881 1009 2881 1497 
Q 2881 1984 2565 2268 
Q 2250 2553 1709 2553 
Q 1456 2553 1204 2497 
Q 953 2441 691 2322 
L 691 4666 
z
" transform="scale(0.015625)"/>
      <path id="DejaVuSans-2e" d="M 684 794 
L 1344 794 
L 1344 0 
L 684 0 
L 684 794 
z
" transform="scale(0.015625)"/>
      <path id="DejaVuSans-2f" d="M 1625 4666 
L 2156 4666 
L 531 -594 
L 0 -594 
L 1625 4666 
z
" transform="scale(0.015625)"/>
      <path id="DejaVuSans-32" d="M 1228 531 
L 3431 531 
L 3431 0 
L 469 0 
L 469 531 
Q 828 903 1448 1529 
Q 2069 2156 2228 2338 
Q 2531 2678 2651 2914 
Q 2772 3150 2772 3378 
Q 2772 3750 2511 3984 
Q 2250 4219 1831 4219 
Q 1534 4219 1204 4116 
Q 875 4013 500 3803 
L 500 4441 
Q 881 4594 1212 4672 
Q 1544 4750 1819 4750 
Q 2544 4750 2975 4387 
Q 3406 4025 3406 3419 
Q 3406 3131 3298 2873 
Q 3191 2616 2906 2266 
Q 2828 2175 2409 1742 
Q 1991 1309 1228 531 
z
" transform="scale(0.015625)"/>
      <path id="DejaVuSans-31" d="M 794 531 
L 1825 531 
L 1825 4091 
L 703 3866 
L 703 4441 
L 1819 4666 
L 2450 4666 
L 2450 531 
L 3481 531 
L 3481 0 
L 794 0 
L 794 531 
z
" transform="scale(0.015625)"/>
      <path id="DejaVuSans-6d" d="M 3328 2828 
Q 3544 3216 3844 3400 
Q 4144 3584 4550 3584 
Q 5097 3584 5394 3201 
Q 5691 2819 5691 2113 
L 5691 0 
L 5113 0 
L 5113 2094 
Q 5113 2597 4934 2840 
Q 4756 3084 4391 3084 
Q 3944 3084 3684 2787 
Q 3425 2491 3425 1978 
L 3425 0 
L 2847 0 
L 2847 2094 
Q 2847 2600 2669 2842 
Q 2491 3084 2119 3084 
Q 1678 3084 1418 2786 
Q 1159 2488 1159 1978 
L 1159 0 
L 581 0 
L 581 3500 
L 1159 3500 
L 1159 2956 
Q 1356 3278 1631 3431 
Q 1906 3584 2284 3584 
Q 2666 3584 2933 3390 
Q 3200 3197 3328 2828 
z
" transform="scale(0.015625)"/>
     </defs>
     <use xlink:href="#DejaVuSans-35"/>
     <use xlink:href="#DejaVuSans-2e" x="63.623047"/>
     <use xlink:href="#DejaVuSans-35" x="95.410156"/>
     <use xlink:href="#DejaVuSans-2f" x="159.033203"/>
     <use xlink:href="#DejaVuSans-32" x="192.724609"/>
     <use xlink:href="#DejaVuSans-2e" x="256.347656"/>
     <use xlink:href="#DejaVuSans-31" x="288.134766"/>
     <use xlink:href="#DejaVuSans-6d" x="351.757812"/>
     <use xlink:href="#DejaVuSans-6d" x="449.169922"/>
    </g>
    <!-- barrel jack -->
    <g transform="translate(45.48675 52.80675) scale(0.08 -0.08)">
     <defs>
      <path id="DejaVuSans-62" d="M 3116 1747 
Q 3116 2381 2855 2742 
Q 2594 3103 2138 3103 
Q 1681 3103 1420 2742 
Q 1159 2381 1159 1747 
Q 1159 1113 1420 752 
Q 1681 391 2138 391 
Q 2594 391 2855 752 
Q 3116 1113 3116 1747 
z
M 1159 2969 
Q 1341 3281 1617 3432 
Q 1894 3584 2278 3584 
Q 2916 3584 3314 3078 
Q 3713 2572 3713 1747 
Q 3713 922 3314 415 
Q 2916 -91 2278 -91 
Q 1894 -91 1617 61 
Q 1341 213 1159 525 
L 1159 0 
L 581 0 
L 581 4863 
L 1159 4863 
L 1159 2969 
z
" transform="scale(0.015625)"/>
      <path id="DejaVuSans-61" d="M 2194 1759 
Q 1497 1759 1228 1600 
Q 959 1441 959 1056 
Q 959 750 1161 570 
Q 1363 391 1709 391 
Q 2188 391 2477 730 
Q 2766 1069 2766 1631 
L 2766 1759 
L 2194 1759 
z
M 3341 1997 
L 3341 0 
L 2766 0 
L 2766 531 
Q 2569 213 2275 61 
Q 1981 -91 1556 -91 
Q 1019 -91 701 211 
Q 384 513 384 1019 
Q 384 1609 779 1909 
Q 1175 2209 1959 2209 
L 2766 2209 
L 2766 2266 
Q 2766 2663 2505 2880 
Q 2244 3097 1772 3097 
Q 1472 3097 1187 3025 
Q 903 2953 641 2809 
L 641 3341 
Q 956 3463 1253 3523 
Q 1550 3584 1831 3584 
Q 2591 3584 2966 3190 
Q 3341 2797 3341 1997 
z
" transform="scale(0.015625)"/>
      <path id="DejaVuSans-72" d="M 2631 2963 
Q 2534 3019 2420 3045 
Q 2306 3072 2169 3072 
Q 1681 3072 1420 2755 
Q 1159 2438 1159 1844 
L 1159 0 
L 581 0 
L 581 3500 
L 1159 3500 
L 1159 2956 
Q 1341 3275 1631 3429 
Q 1922 3584 2338 3584 
Q 2397 3584 2469 3576 
Q 2541 3569 2628 3553 
L 2631 2963 
z
" transform="scale(0.015625)"/>
      <path id="DejaVuSans-65" d="M 3597 1894 
L 3597 1613 
L 953 1613 
Q 991 1019 1311 708 
Q 1631 397 2203 397 
Q 2534 397 2845 478 
Q 3156 559 3463 722 
L 3463 178 
Q 3153 47 2828 -22 
Q 2503 -91 2169 -91 
Q 1331 -91 842 396 
Q 353 884 353 1716 
Q 353 2575 817 3079 
Q 1281 3584 2069 3584 
Q 2775 3584 3186 3129 
Q 3597 2675 3597 1894 
z
M 3022 2063 
Q 3016 2534 2758 2815 
Q 2500 3097 2075 3097 
Q 1594 3097 1305 2825 
Q 1016 2553 972 2059 
L 3022 2063 
z
" transform="scale(0.015625)"/>
      <path id="DejaVuSans-6c" d="M 603 4863 
L 1178 4863 
L 1178 0 
L 603 0 
L 603 4863 
z
" transform="scale(0.015625)"/>
      <path id="DejaVuSans-20" transform="scale(0.015625)"/>
      <path id="DejaVuSans-6a" d="M 603 3500 
L 1178 3500 
L 1178 -63 
Q 1178 -731 923 -1031 
Q 669 -1331 103 -1331 
L -116 -1331 
L -116 -844 
L 38 -844 
Q 366 -844 484 -692 
Q 603 -541 603 -63 
L 603 3500 
z
M 603 4863 
L 1178 4863 
L 1178 4134 
L 603 4134 
L 603 4863 
z
" transform="scale(0.015625)"/>
      <path id="DejaVuSans-63" d="M 3122 3366 
L 3122 2828 
Q 2878 2963 2633 3030 
Q 2388 3097 2138 3097 
Q 1578 3097 1268 2742 
Q 959 2388 959 1747 
Q 959 1106 1268 751 
Q 1578 397 2138 397 
Q 2388 397 2633 464 
Q 2878 531 3122 666 
L 3122 134 
Q 2881 22 2623 -34 
Q 2366 -91 2075 -91 
Q 1284 -91 818 406 
Q 353 903 353 1747 
Q 353 2603 823 3093 
Q 1294 3584 2113 3584 
Q 2378 3584 2631 3529 
Q 2884 3475 3122 3366 
z
" transform="scale(0.015625)"/>
      <path id="DejaVuSans-6b" d="M 581 4863 
L 1159 4863 
L 1159 1991 
L 2875 3500 
L 3609 3500 
L 1753 1863 
L 3688 0 
L 2938 0 
L 1159 1709 
L 1159 0 
L 581 0 
L 581 4863 
z
" transform="scale(0.015625)"/>
     </defs>
     <use xlink:href="#DejaVuSans-62"/>
     <use xlink:href="#DejaVuSans-61" x="63.476562"/>
     <use xlink:href="#DejaVuSans-72" x="124.755859"/>
     <use xlink:href="#DejaVuSans-72" x="164.119141"/>
     <use xlink:href="#DejaVuSans-65" x="202.982422"/>
     <use xlink:href="#DejaVuSans-6c" x="264.505859"/>
     <use xlink:href="#DejaVuSans-20" x="292.289062"/>
     <use xlink:href="#DejaVuSans-6a" x="324.076172"/>
     <use xlink:href="#DejaVuSans-61" x="351.859375"/>
     <use xlink:href="#DejaVuSans-63" x="413.138672"/>
     <use xlink:href="#DejaVuSans-6b" x="468.119141"/>
    </g>
   </g>
   <g id="text_4">
    <!-- 470µF -->
    <g transform="translate(174.047336 56.840266) scale(0.085 -0.085)">
     <defs>
      <path id="DejaVuSans-34" d="M 2419 4116 
L 825 1625 
L 2419 1625 
L 2419 4116 
z
M 2253 4666 
L 3047 4666 
L 3047 1625 
L 3713 1625 
L 3713 1100 
L 3047 1100 
L 3047 0 
L 2419 0 
L 2419 1100 
L 313 1100 
L 313 1709 
L 2253 4666 
z
" transform="scale(0.015625)"/>
      <path id="DejaVuSans-37" d="M 525 4666 
L 3525 4666 
L 3525 4397 
L 1831 0 
L 1172 0 
L 2766 4134 
L 525 4134 
L 525 4666 
z
" transform="scale(0.015625)"/>
      <path id="DejaVuSans-30" d="M 2034 4250 
Q 1547 4250 1301 3770 
Q 1056 3291 1056 2328 
Q 1056 1369 1301 889 
Q 1547 409 2034 409 
Q 2525 409 2770 889 
Q 3016 1369 3016 2328 
Q 3016 3291 2770 3770 
Q 2525 4250 2034 4250 
z
M 2034 4750 
Q 2819 4750 3233 4129 
Q 3647 3509 3647 2328 
Q 3647 1150 3233 529 
Q 2819 -91 2034 -91 
Q 1250 -91 836 529 
Q 422 1150 422 2328 
Q 422 3509 836 4129 
Q 1250 4750 2034 4750 
z
" transform="scale(0.015625)"/>
      <path id="DejaVuSans-b5" d="M 544 -1331 
L 544 3500 
L 1119 3500 
L 1119 1325 
Q 1119 872 1334 640 
Q 1550 409 1972 409 
Q 2434 409 2667 671 
Q 2900 934 2900 1459 
L 2900 3500 
L 3475 3500 
L 3475 806 
Q 3475 619 3529 530 
Q 3584 441 3700 441 
Q 3728 441 3778 458 
Q 3828 475 3916 513 
L 3916 50 
Q 3788 -22 3673 -56 
Q 3559 -91 3450 -91 
Q 3234 -91 3106 31 
Q 2978 153 2931 403 
Q 2775 156 2548 32 
Q 2322 -91 2016 -91 
Q 1697 -91 1473 31 
Q 1250 153 1119 397 
L 1119 -1331 
L 544 -1331 
z
" transform="scale(0.015625)"/>
      <path id="DejaVuSans-46" d="M 628 4666 
L 3309 4666 
L 3309 4134 
L 1259 4134 
L 1259 2759 
L 3109 2759 
L 3109 2228 
L 1259 2228 
L 1259 0 
L 628 0 
L 628 4666 
z
" transform="scale(0.015625)"/>
     </defs>
     <use xlink:href="#DejaVuSans-34"/>
     <use xlink:href="#DejaVuSans-37" x="63.623047"/>
     <use xlink:href="#DejaVuSans-30" x="127.246094"/>
     <use xlink:href="#DejaVuSans-b5" x="190.869141"/>
     <use xlink:href="#DejaVuSans-46" x="254.492188"/>
    </g>
   </g>
   <g id="text_5">
    <!-- LED panel -->
    <g transform="translate(191.891047 44.960266) scale(0.085 -0.085)">
     <defs>
      <path id="DejaVuSans-4c" d="M 628 4666 
L 1259 4666 
L 1259 531 
L 3531 531 
L 3531 0 
L 628 0 
L 628 4666 
z
" transform="scale(0.015625)"/>
      <path id="DejaVuSans-45" d="M 628 4666 
L 3578 4666 
L 3578 4134 
L 1259 4134 
L 1259 2753 
L 3481 2753 
L 3481 2222 
L 1259 2222 
L 1259 531 
L 3634 531 
L 3634 0 
L 628 0 
L 628 4666 
z
" transform="scale(0.015625)"/>
      <path id="DejaVuSans-70" d="M 1159 525 
L 1159 -1331 
L 581 -1331 
L 581 3500 
L 1159 3500 
L 1159 2969 
Q 1341 3281 1617 3432 
Q 1894 3584 2278 3584 
Q 2916 3584 3314 3078 
Q 3713 2572 3713 1747 
Q 3713 922 3314 415 
Q 2916 -91 2278 -91 
Q 1894 -91 1617 61 
Q 1341 213 1159 525 
z
M 3116 1747 
Q 3116 2381 2855 2742 
Q 2594 3103 2138 3103 
Q 1681 3103 1420 2742 
Q 1159 2381 1159 1747 
Q 1159 1113 1420 752 
Q 1681 391 2138 391 
Q 2594 391 2855 752 
Q 3116 1113 3116 1747 
z
" transform="scale(0.015625)"/>
      <path id="DejaVuSans-6e" d="M 3513 2113 
L 3513 0 
L 2938 0 
L 2938 2094 
Q 2938 2591 2744 2837 
Q 2550 3084 2163 3084 
Q 1697 3084 1428 2787 
Q 1159 2491 1159 1978 
L 1159 0 
L 581 0 
L 581 3500 
L 1159 3500 
L 1159 2956 
Q 1366 3272 1645 3428 
Q 1925 3584 2291 3584 
Q 2894 3584 3203 3211 
Q 3513 2838 3513 2113 
z
" transform="scale(0.015625)"/>
     </defs>
     <use xlink:href="#DejaVuSans-4c"/>
     <use xlink:href="#DejaVuSans-45" x="55.712891"/>
     <use xlink:href="#DejaVuSans-44" x="118.896484"/>
     <use xlink:href="#DejaVuSans-20" x="195.898438"/>
     <use xlink:href="#DejaVuSans-70" x="227.685547"/>
     <use xlink:href="#DejaVuSans-61" x="291.162109"/>
     <use xlink:href="#DejaVuSans-6e" x="352.441406"/>
     <use xlink:href="#DejaVuSans-65" x="415.820312"/>
     <use xlink:href="#DejaVuSans-6c" x="477.34375"/>
    </g>
    <!-- (5V, screw term.) -->
    <g transform="translate(161.393313 53.186672) scale(0.085 -0.085)">
     <defs>
      <path id="DejaVuSans-28" d="M 1984 4856 
Q 1566 4138 1362 3434 
Q 1159 2731 1159 2009 
Q 1159 1288 1364 580 
Q 1569 -128 1984 -844 
L 1484 -844 
Q 1016 -109 783 600 
Q 550 1309 550 2009 
Q 550 2706 781 3412 
Q 1013 4119 1484 4856 
L 1984 4856 
z
" transform="scale(0.015625)"/>
      <path id="DejaVuSans-56" d="M 1831 0 
L 50 4666 
L 709 4666 
L 2188 738 
L 3669 4666 
L 4325 4666 
L 2547 0 
L 1831 0 
z
" transform="scale(0.015625)"/>
      <path id="DejaVuSans-2c" d="M 750 794 
L 1409 794 
L 1409 256 
L 897 -744 
L 494 -744 
L 750 256 
L 750 794 
z
" transform="scale(0.015625)"/>
      <path id="DejaVuSans-73" d="M 2834 3397 
L 2834 2853 
Q 2591 2978 2328 3040 
Q 2066 3103 1784 3103 
Q 1356 3103 1142 2972 
Q 928 2841 928 2578 
Q 928 2378 1081 2264 
Q 1234 2150 1697 2047 
L 1894 2003 
Q 2506 1872 2764 1633 
Q 3022 1394 3022 966 
Q 3022 478 2636 193 
Q 2250 -91 1575 -91 
Q 1294 -91 989 -36 
Q 684 19 347 128 
L 347 722 
Q 666 556 975 473 
Q 1284 391 1588 391 
Q 1994 391 2212 530 
Q 2431 669 2431 922 
Q 2431 1156 2273 1281 
Q 2116 1406 1581 1522 
L 1381 1569 
Q 847 1681 609 1914 
Q 372 2147 372 2553 
Q 372 3047 722 3315 
Q 1072 3584 1716 3584 
Q 2034 3584 2315 3537 
Q 2597 3491 2834 3397 
z
" transform="scale(0.015625)"/>
      <path id="DejaVuSans-77" d="M 269 3500 
L 844 3500 
L 1563 769 
L 2278 3500 
L 2956 3500 
L 3675 769 
L 4391 3500 
L 4966 3500 
L 4050 0 
L 3372 0 
L 2619 2869 
L 1863 0 
L 1184 0 
L 269 3500 
z
" transform="scale(0.015625)"/>
      <path id="DejaVuSans-74" d="M 1172 4494 
L 1172 3500 
L 2356 3500 
L 2356 3053 
L 1172 3053 
L 1172 1153 
Q 1172 725 1289 603 
Q 1406 481 1766 481 
L 2356 481 
L 2356 0 
L 1766 0 
Q 1100 0 847 248 
Q 594 497 594 1153 
L 594 3053 
L 172 3053 
L 172 3500 
L 594 3500 
L 594 4494 
L 1172 4494 
z
" transform="scale(0.015625)"/>
      <path id="DejaVuSans-29" d="M 513 4856 
L 1013 4856 
Q 1481 4119 1714 3412 
Q 1947 2706 1947 2009 
Q 1947 1309 1714 600 
Q 1481 -109 1013 -844 
L 513 -844 
Q 928 -128 1133 580 
Q 1338 1288 1338 2009 
Q 1338 2731 1133 3434 
Q 928 4138 513 4856 
z
" transform="scale(0.015625)"/>
     </defs>
     <use xlink:href="#DejaVuSans-28"/>
     <use xlink:href="#DejaVuSans-35" x="39.013672"/>
     <use xlink:href="#DejaVuSans-56" x="102.636719"/>
     <use xlink:href="#DejaVuSans-2c" x="171.044922"/>
     <use xlink:href="#DejaVuSans-20" x="202.832031"/>
     <use xlink:href="#DejaVuSans-73" x="234.619141"/>
     <use xlink:href="#DejaVuSans-63" x="286.71875"/>
     <use xlink:href="#DejaVuSans-72" x="341.699219"/>
     <use xlink:href="#DejaVuSans-65" x="380.5625"/>
     <use xlink:href="#DejaVuSans-77" x="442.085938"/>
     <use xlink:href="#DejaVuSans-20" x="523.873047"/>
     <use xlink:href="#DejaVuSans-74" x="555.660156"/>
     <use xlink:href="#DejaVuSans-65" x="594.869141"/>
     <use xlink:href="#DejaVuSans-72" x="656.392578"/>
     <use xlink:href="#DejaVuSans-6d" x="695.755859"/>
     <use xlink:href="#DejaVuSans-2e" x="793.167969"/>
     <use xlink:href="#DejaVuSans-29" x="824.955078"/>
    </g>
   </g>
   <g id="text_6">
    <!-- GND -->
    <g transform="translate(242.748 56.993469) scale(0.085 -0.085)">
     <use xlink:href="#DejaVuSans-47"/>
     <use xlink:href="#DejaVuSans-4e" x="77.490234"/>
     <use xlink:href="#DejaVuSans-44" x="152.294922"/>
    </g>
   </g>
   <g id="text_7">
    <!-- 100nF -->
    <g transform="translate(257.217961 56.840266) scale(0.085 -0.085)">
     <use xlink:href="#DejaVuSans-31"/>
     <use xlink:href="#DejaVuSans-30" x="63.623047"/>
     <use xlink:href="#DejaVuSans-30" x="127.246094"/>
     <use xlink:href="#DejaVuSans-6e" x="190.869141"/>
     <use xlink:href="#DejaVuSans-46" x="254.248047"/>
    </g>
   </g>
   <g id="text_8">
    <!-- ESP32-S3 VIN -->
    <g transform="translate(275.865969 44.960266) scale(0.085 -0.085)">
     <defs>
      <path id="DejaVuSans-53" d="M 3425 4513 
L 3425 3897 
Q 3066 4069 2747 4153 
Q 2428 4238 2131 4238 
Q 1616 4238 1336 4038 
Q 1056 3838 1056 3469 
Q 1056 3159 1242 3001 
Q 1428 2844 1947 2747 
L 2328 2669 
Q 3034 2534 3370 2195 
Q 3706 1856 3706 1288 
Q 3706 609 3251 259 
Q 2797 -91 1919 -91 
Q 1588 -91 1214 -16 
Q 841 59 441 206 
L 441 856 
Q 825 641 1194 531 
Q 1563 422 1919 422 
Q 2459 422 2753 634 
Q 3047 847 3047 1241 
Q 3047 1584 2836 1778 
Q 2625 1972 2144 2069 
L 1759 2144 
Q 1053 2284 737 2584 
Q 422 2884 422 3419 
Q 422 4038 858 4394 
Q 1294 4750 2059 4750 
Q 2388 4750 2728 4690 
Q 3069 4631 3425 4513 
z
" transform="scale(0.015625)"/>
      <path id="DejaVuSans-50" d="M 1259 4147 
L 1259 2394 
L 2053 2394 
Q 2494 2394 2734 2622 
Q 2975 2850 2975 3272 
Q 2975 3691 2734 3919 
Q 2494 4147 2053 4147 
L 1259 4147 
z
M 628 4666 
L 2053 4666 
Q 2838 4666 3239 4311 
Q 3641 3956 3641 3272 
Q 3641 2581 3239 2228 
Q 2838 1875 2053 1875 
L 1259 1875 
L 1259 0 
L 628 0 
L 628 4666 
z
" transform="scale(0.015625)"/>
      <path id="DejaVuSans-33" d="M 2597 2516 
Q 3050 2419 3304 2112 
Q 3559 1806 3559 1356 
Q 3559 666 3084 287 
Q 2609 -91 1734 -91 
Q 1441 -91 1130 -33 
Q 819 25 488 141 
L 488 750 
Q 750 597 1062 519 
Q 1375 441 1716 441 
Q 2309 441 2620 675 
Q 2931 909 2931 1356 
Q 2931 1769 2642 2001 
Q 2353 2234 1838 2234 
L 1294 2234 
L 1294 2753 
L 1863 2753 
Q 2328 2753 2575 2939 
Q 2822 3125 2822 3475 
Q 2822 3834 2567 4026 
Q 2313 4219 1838 4219 
Q 1578 4219 1281 4162 
Q 984 4106 628 3988 
L 628 4550 
Q 988 4650 1302 4700 
Q 1616 4750 1894 4750 
Q 2613 4750 3031 4423 
Q 3450 4097 3450 3541 
Q 3450 3153 3228 2886 
Q 3006 2619 2597 2516 
z
" transform="scale(0.015625)"/>
      <path id="DejaVuSans-2d" d="M 313 2009 
L 1997 2009 
L 1997 1497 
L 313 1497 
L 313 2009 
z
" transform="scale(0.015625)"/>
      <path id="DejaVuSans-49" d="M 628 4666 
L 1259 4666 
L 1259 0 
L 628 0 
L 628 4666 
z
" transform="scale(0.015625)"/>
     </defs>
     <use xlink:href="#DejaVuSans-45"/>
     <use xlink:href="#DejaVuSans-53" x="63.183594"/>
     <use xlink:href="#DejaVuSans-50" x="126.660156"/>
     <use xlink:href="#DejaVuSans-33" x="186.962891"/>
     <use xlink:href="#DejaVuSans-32" x="250.585938"/>
     <use xlink:href="#DejaVuSans-2d" x="314.208984"/>
     <use xlink:href="#DejaVuSans-53" x="350.292969"/>
     <use xlink:href="#DejaVuSans-33" x="413.769531"/>
     <use xlink:href="#DejaVuSans-20" x="477.392578"/>
     <use xlink:href="#DejaVuSans-56" x="509.179688"/>
     <use xlink:href="#DejaVuSans-49" x="577.587891"/>
     <use xlink:href="#DejaVuSans-4e" x="607.080078"/>
    </g>
    <!-- → 3.3V LDO -->
    <g transform="translate(283.998078 53.186672) scale(0.085 -0.085)">
     <defs>
      <path id="DejaVuSans-2192" d="M 5050 2147 
L 5050 1866 
L 3822 638 
L 3447 1013 
L 4175 1741 
L 366 1741 
L 366 2272 
L 4175 2272 
L 3447 3000 
L 3822 3375 
L 5050 2147 
z
" transform="scale(0.015625)"/>
      <path id="DejaVuSans-4f" d="M 2522 4238 
Q 1834 4238 1429 3725 
Q 1025 3213 1025 2328 
Q 1025 1447 1429 934 
Q 1834 422 2522 422 
Q 3209 422 3611 934 
Q 4013 1447 4013 2328 
Q 4013 3213 3611 3725 
Q 3209 4238 2522 4238 
z
M 2522 4750 
Q 3503 4750 4090 4092 
Q 4678 3434 4678 2328 
Q 4678 1225 4090 567 
Q 3503 -91 2522 -91 
Q 1538 -91 948 565 
Q 359 1222 359 2328 
Q 359 3434 948 4092 
Q 1538 4750 2522 4750 
z
" transform="scale(0.015625)"/>
     </defs>
     <use xlink:href="#DejaVuSans-2192"/>
     <use xlink:href="#DejaVuSans-20" x="83.789062"/>
     <use xlink:href="#DejaVuSans-33" x="115.576172"/>
     <use xlink:href="#DejaVuSans-2e" x="179.199219"/>
     <use xlink:href="#DejaVuSans-33" x="210.986328"/>
     <use xlink:href="#DejaVuSans-56" x="274.609375"/>
     <use xlink:href="#DejaVuSans-20" x="343.017578"/>
     <use xlink:href="#DejaVuSans-4c" x="374.804688"/>
     <use xlink:href="#DejaVuSans-44" x="430.517578"/>
     <use xlink:href="#DejaVuSans-4f" x="507.519531"/>
    </g>
   </g>
   <g id="text_9">
    <!-- GND -->
    <g transform="translate(341.748 56.993469) scale(0.085 -0.085)">
     <use xlink:href="#DejaVuSans-47"/>
     <use xlink:href="#DejaVuSans-4e" x="77.490234"/>
     <use xlink:href="#DejaVuSans-44" x="152.294922"/>
    </g>
   </g>
   <g id="text_10">
    <!-- 100nF -->
    <g transform="translate(356.217961 56.840266) scale(0.085 -0.085)">
     <use xlink:href="#DejaVuSans-31"/>
     <use xlink:href="#DejaVuSans-30" x="63.623047"/>
     <use xlink:href="#DejaVuSans-30" x="127.246094"/>
     <use xlink:href="#DejaVuSans-6e" x="190.869141"/>
     <use xlink:href="#DejaVuSans-46" x="254.248047"/>
    </g>
   </g>
   <g id="text_11">
    <!-- MAX98357A -->
    <g transform="translate(369.121906 44.960266) scale(0.085 -0.085)">
     <defs>
      <path id="DejaVuSans-4d" d="M 628 4666 
L 1569 4666 
L 2759 1491 
L 3956 4666 
L 4897 4666 
L 4897 0 
L 4281 0 
L 4281 4097 
L 3078 897 
L 2444 897 
L 1241 4097 
L 1241 0 
L 628 0 
L 628 4666 
z
" transform="scale(0.015625)"/>
      <path id="DejaVuSans-41" d="M 2188 4044 
L 1331 1722 
L 3047 1722 
L 2188 4044 
z
M 1831 4666 
L 2547 4666 
L 4325 0 
L 3669 0 
L 3244 1197 
L 1141 1197 
L 716 0 
L 50 0 
L 1831 4666 
z
" transform="scale(0.015625)"/>
      <path id="DejaVuSans-58" d="M 403 4666 
L 1081 4666 
L 2241 2931 
L 3406 4666 
L 4084 4666 
L 2584 2425 
L 4184 0 
L 3506 0 
L 2194 1984 
L 872 0 
L 191 0 
L 1856 2491 
L 403 4666 
z
" transform="scale(0.015625)"/>
      <path id="DejaVuSans-39" d="M 703 97 
L 703 672 
Q 941 559 1184 500 
Q 1428 441 1663 441 
Q 2288 441 2617 861 
Q 2947 1281 2994 2138 
Q 2813 1869 2534 1725 
Q 2256 1581 1919 1581 
Q 1219 1581 811 2004 
Q 403 2428 403 3163 
Q 403 3881 828 4315 
Q 1253 4750 1959 4750 
Q 2769 4750 3195 4129 
Q 3622 3509 3622 2328 
Q 3622 1225 3098 567 
Q 2575 -91 1691 -91 
Q 1453 -91 1209 -44 
Q 966 3 703 97 
z
M 1959 2075 
Q 2384 2075 2632 2365 
Q 2881 2656 2881 3163 
Q 2881 3666 2632 3958 
Q 2384 4250 1959 4250 
Q 1534 4250 1286 3958 
Q 1038 3666 1038 3163 
Q 1038 2656 1286 2365 
Q 1534 2075 1959 2075 
z
" transform="scale(0.015625)"/>
      <path id="DejaVuSans-38" d="M 2034 2216 
Q 1584 2216 1326 1975 
Q 1069 1734 1069 1313 
Q 1069 891 1326 650 
Q 1584 409 2034 409 
Q 2484 409 2743 651 
Q 3003 894 3003 1313 
Q 3003 1734 2745 1975 
Q 2488 2216 2034 2216 
z
M 1403 2484 
Q 997 2584 770 2862 
Q 544 3141 544 3541 
Q 544 4100 942 4425 
Q 1341 4750 2034 4750 
Q 2731 4750 3128 4425 
Q 3525 4100 3525 3541 
Q 3525 3141 3298 2862 
Q 3072 2584 2669 2484 
Q 3125 2378 3379 2068 
Q 3634 1759 3634 1313 
Q 3634 634 3220 271 
Q 2806 -91 2034 -91 
Q 1263 -91 848 271 
Q 434 634 434 1313 
Q 434 1759 690 2068 
Q 947 2378 1403 2484 
z
M 1172 3481 
Q 1172 3119 1398 2916 
Q 1625 2713 2034 2713 
Q 2441 2713 2670 2916 
Q 2900 3119 2900 3481 
Q 2900 3844 2670 4047 
Q 2441 4250 2034 4250 
Q 1625 4250 1398 4047 
Q 1172 3844 1172 3481 
z
" transform="scale(0.015625)"/>
     </defs>
     <use xlink:href="#DejaVuSans-4d"/>
     <use xlink:href="#DejaVuSans-41" x="86.279297"/>
     <use xlink:href="#DejaVuSans-58" x="154.6875"/>
     <use xlink:href="#DejaVuSans-39" x="223.193359"/>
     <use xlink:href="#DejaVuSans-38" x="286.816406"/>
     <use xlink:href="#DejaVuSans-33" x="350.439453"/>
     <use xlink:href="#DejaVuSans-35" x="414.0625"/>
     <use xlink:href="#DejaVuSans-37" x="477.685547"/>
     <use xlink:href="#DejaVuSans-41" x="541.308594"/>
    </g>
    <!-- VIN -->
    <g transform="translate(406.266906 53.186672) scale(0.085 -0.085)">
     <use xlink:href="#DejaVuSans-56"/>
     <use xlink:href="#DejaVuSans-49" x="68.408203"/>
     <use xlink:href="#DejaVuSans-4e" x="97.900391"/>
    </g>
   </g>
   <g id="text_12">
    <!-- GND -->
    <g transform="translate(428.868 56.993469) scale(0.085 -0.085)">
     <use xlink:href="#DejaVuSans-47"/>
     <use xlink:href="#DejaVuSans-4e" x="77.490234"/>
     <use xlink:href="#DejaVuSans-44" x="152.294922"/>
    </g>
   </g>
   <g id="patch_2">
    <path d="M 187.308 65.538 
C 188.095653 65.538 188.851152 65.225062 189.408107 64.668107 
C 189.965062 64.111152 190.278 63.355653 190.278 62.568 
C 190.278 61.780347 189.965062 61.024848 189.408107 60.467893 
C 188.851152 59.910938 188.095653 59.598 187.308 59.598 
C 186.520347 59.598 185.764848 59.910938 185.207893 60.467893 
C 184.650938 61.024848 184.338 61.780347 184.338 62.568 
C 184.338 63.355653 184.650938 64.111152 185.207893 64.668107 
C 185.764848 65.225062 186.520347 65.538 187.308 65.538 
z
" clip-path="url(#p4a1be7d023)" style="stroke: #000000; stroke-width: 2; stroke-linejoin: miter"/>
   </g>
   <g id="patch_3">
    <path d="M 187.308 41.778 
C 188.095653 41.778 188.851152 41.465062 189.408107 40.908107 
C 189.965062 40.351152 190.278 39.595653 190.278 38.808 
C 190.278 38.020347 189.965062 37.264848 189.408107 36.707893 
C 188.851152 36.150938 188.095653 35.838 187.308 35.838 
C 186.520347 35.838 185.764848 36.150938 185.207893 36.707893 
C 184.650938 37.264848 184.338 38.020347 184.338 38.808 
C 184.338 39.595653 184.650938 40.351152 185.207893 40.908107 
C 185.764848 41.465062 186.520347 41.778 187.308 41.778 
z
" clip-path="url(#p4a1be7d023)" style="stroke: #000000; stroke-width: 2; stroke-linejoin: miter"/>
   </g>
   <g id="patch_4">
    <path d="M 238.788 65.538 
C 239.575653 65.538 240.331152 65.225062 240.888107 64.668107 
C 241.445062 64.111152 241.758 63.355653 241.758 62.568 
C 241.758 61.780347 241.445062 61.024848 240.888107 60.467893 
C 240.331152 59.910938 239.575653 59.598 238.788 59.598 
C 238.000347 59.598 237.244848 59.910938 236.687893 60.467893 
C 236.130938 61.024848 235.818 61.780347 235.818 62.568 
C 235.818 63.355653 236.130938 64.111152 236.687893 64.668107 
C 237.244848 65.225062 238.000347 65.538 238.788 65.538 
z
" clip-path="url(#p4a1be7d023)" style="stroke: #000000; stroke-width: 2; stroke-linejoin: miter"/>
   </g>
   <g id="patch_5">
    <path d="M 238.788 41.778 
C 239.575653 41.778 240.331152 41.465062 240.888107 40.908107 
C 241.445062 40.351152 241.758 39.595653 241.758 38.808 
C 241.758 38.020347 241.445062 37.264848 240.888107 36.707893 
C 240.331152 36.150938 239.575653 35.838 238.788 35.838 
C 238.000347 35.838 237.244848 36.150938 236.687893 36.707893 
C 236.130938 37.264848 235.818 38.020347 235.818 38.808 
C 235.818 39.595653 236.130938 40.351152 236.687893 40.908107 
C 237.244848 41.465062 238.000347 41.778 238.788 41.778 
z
" clip-path="url(#p4a1be7d023)" style="stroke: #000000; stroke-width: 2; stroke-linejoin: miter"/>
   </g>
   <g id="patch_6">
    <path d="M 270.468 65.538 
C 271.255653 65.538 272.011152 65.225062 272.568107 64.668107 
C 273.125062 64.111152 273.438 63.355653 273.438 62.568 
C 273.438 61.780347 273.125062 61.024848 272.568107 60.467893 
C 272.011152 59.910938 271.255653 59.598 270.468 59.598 
C 269.680347 59.598 268.924848 59.910938 268.367893 60.467893 
C 267.810938 61.024848 267.498 61.780347 267.498 62.568 
C 267.498 63.355653 267.810938 64.111152 268.367893 64.668107 
C 268.924848 65.225062 269.680347 65.538 270.468 65.538 
z
" clip-path="url(#p4a1be7d023)" style="stroke: #000000; stroke-width: 2; stroke-linejoin: miter"/>
   </g>
   <g id="patch_7">
    <path d="M 270.468 41.778 
C 271.255653 41.778 272.011152 41.465062 272.568107 40.908107 
C 273.125062 40.351152 273.438 39.595653 273.438 38.808 
C 273.438 38.020347 273.125062 37.264848 272.568107 36.707893 
C 272.011152 36.150938 271.255653 35.838 270.468 35.838 
C 269.680347 35.838 268.924848 36.150938 268.367893 36.707893 
C 267.810938 37.264848 267.498 38.020347 267.498 38.808 
C 267.498 39.595653 267.810938 40.351152 268.367893 40.908107 
C 268.924848 41.465062 269.680347 41.778 270.468 41.778 
z
" clip-path="url(#p4a1be7d023)" style="stroke: #000000; stroke-width: 2; stroke-linejoin: miter"/>
   </g>
   <g id="patch_8">
    <path d="M 337.788 65.538 
C 338.575653 65.538 339.331152 65.225062 339.888107 64.668107 
C 340.445062 64.111152 340.758 63.355653 340.758 62.568 
C 340.758 61.780347 340.445062 61.024848 339.888107 60.467893 
C 339.331152 59.910938 338.575653 59.598 337.788 59.598 
C 337.000347 59.598 336.244848 59.910938 335.687893 60.467893 
C 335.130938 61.024848 334.818 61.780347 334.818 62.568 
C 334.818 63.355653 335.130938 64.111152 335.687893 64.668107 
C 336.244848 65.225062 337.000347 65.538 337.788 65.538 
z
" clip-path="url(#p4a1be7d023)" style="stroke: #000000; stroke-width: 2; stroke-linejoin: miter"/>
   </g>
   <g id="patch_9">
    <path d="M 337.788 41.778 
C 338.575653 41.778 339.331152 41.465062 339.888107 40.908107 
C 340.445062 40.351152 340.758 39.595653 340.758 38.808 
C 340.758 38.020347 340.445062 37.264848 339.888107 36.707893 
C 339.331152 36.150938 338.575653 35.838 337.788 35.838 
C 337.000347 35.838 336.244848 36.150938 335.687893 36.707893 
C 335.130938 37.264848 334.818 38.020347 334.818 38.808 
C 334.818 39.595653 335.130938 40.351152 335.687893 40.908107 
C 336.244848 41.465062 337.000347 41.778 337.788 41.778 
z
" clip-path="url(#p4a1be7d023)" style="stroke: #000000; stroke-width: 2; stroke-linejoin: miter"/>
   </g>
   <g id="patch_10">
    <path d="M 369.468 65.538 
C 370.255653 65.538 371.011152 65.225062 371.568107 64.668107 
C 372.125062 64.111152 372.438 63.355653 372.438 62.568 
C 372.438 61.780347 372.125062 61.024848 371.568107 60.467893 
C 371.011152 59.910938 370.255653 59.598 369.468 59.598 
C 368.680347 59.598 367.924848 59.910938 367.367893 60.467893 
C 366.810938 61.024848 366.498 61.780347 366.498 62.568 
C 366.498 63.355653 366.810938 64.111152 367.367893 64.668107 
C 367.924848 65.225062 368.680347 65.538 369.468 65.538 
z
" clip-path="url(#p4a1be7d023)" style="stroke: #000000; stroke-width: 2; stroke-linejoin: miter"/>
   </g>
   <g id="patch_11">
    <path d="M 369.468 41.778 
C 370.255653 41.778 371.011152 41.465062 371.568107 40.908107 
C 372.125062 40.351152 372.438 39.595653 372.438 38.808 
C 372.438 38.020347 372.125062 37.264848 371.568107 36.707893 
C 371.011152 36.150938 370.255653 35.838 369.468 35.838 
C 368.680347 35.838 367.924848 36.150938 367.367893 36.707893 
C 366.810938 37.264848 366.498 38.020347 366.498 38.808 
C 366.498 39.595653 366.810938 40.351152 367.367893 40.908107 
C 367.924848 41.465062 368.680347 41.778 369.468 41.778 
z
" clip-path="url(#p4a1be7d023)" style="stroke: #000000; stroke-width: 2; stroke-linejoin: miter"/>
   </g>
   <g id="patch_12">
    <path d="M 424.908 65.538 
C 425.695653 65.538 426.451152 65.225062 427.008107 64.668107 
C 427.565062 64.111152 427.878 63.355653 427.878 62.568 
C 427.878 61.780347 427.565062 61.024848 427.008107 60.467893 
C 426.451152 59.910938 425.695653 59.598 424.908 59.598 
C 424.120347 59.598 423.364848 59.910938 422.807893 60.467893 
C 422.250938 61.024848 421.938 61.780347 421.938 62.568 
C 421.938 63.355653 422.250938 64.111152 422.807893 64.668107 
C 423.364848 65.225062 424.120347 65.538 424.908 65.538 
z
" clip-path="url(#p4a1be7d023)" style="stroke: #000000; stroke-width: 2; stroke-linejoin: miter"/>
   </g>
   <g id="patch_13">
    <path d="M 424.908 41.778 
C 425.695653 41.778 426.451152 41.465062 427.008107 40.908107 
C 427.565062 40.351152 427.878 39.595653 427.878 38.808 
C 427.878 38.020347 427.565062 37.264848 427.008107 36.707893 
C 426.451152 36.150938 425.695653 35.838 424.908 35.838 
C 424.120347 35.838 423.364848 36.150938 422.807893 36.707893 
C 422.250938 37.264848 421.938 38.020347 421.938 38.808 
C 421.938 39.595653 422.250938 40.351152 422.807893 40.908107 
C 423.364848 41.465062 424.120347 41.778 424.908 41.778 
z
" clip-path="url(#p4a1be7d023)" style="stroke: #000000; stroke-width: 2; stroke-linejoin: miter"/>
   </g>
  </g>
 </g>
 <defs>
  <clipPath id="p4a1be7d023">
   <rect x="0" y="-0" width="461.736" height="101.376"/>
  </clipPath>
 </defs>
</svg>
