<?xml version="1.0" encoding="utf-8" standalone="no"?>
<!DOCTYPE svg PUBLIC "-//W3C//DTD SVG 1.1//EN"
  "http://www.w3.org/Graphics/SVG/1.1/DTD/svg11.dtd">
<svg xmlns:xlink="http://www.w3.org/1999/xlink" width="469.3968pt" height="288.2496pt" viewBox="0 0 469.3968 288.2496" xmlns="http://www.w3.org/2000/svg" version="1.1">
 <metadata>
  <rdf:RDF xmlns:dc="http://purl.org/dc/elements/1.1/" xmlns:cc="http://creativecommons.org/ns#" xmlns:rdf="http://www.w3.org/1999/02/22-rdf-syntax-ns#">
   <cc:Work>
    <dc:type rdf:resource="http://purl.org/dc/dcmitype/StillImage"/>
    <dc:date>2026-04-05T15:43:35.926915</dc:date>
    <dc:format>image/svg+xml</dc:format>
    <dc:creator>
     <cc:Agent>
      <dc:title>Matplotlib v3.9.4, https://matplotlib.org/</dc:title>
     </cc:Agent>
    </dc:creator>
   </cc:Work>
  </rdf:RDF>
 </metadata>
 <defs>
  <style type="text/css">*{stroke-linejoin: round; stroke-linecap: butt}</style>
 </defs>
 <g id="figure_1">
  <g id="patch_1">
   <path d="M 0 288.2496 
L 469.3968 288.2496 
L 469.3968 0 
L 0 0 
L 0 288.2496 
z
" style="fill: none"/>
  </g>
  <g id="axes_1">
   <g id="line2d_1">
    <path d="M 65.2752 283.7568 
L 182.7792 283.7568 
L 182.7792 17.6448 
L 65.2752 17.6448 
L 65.2752 283.7568 
" clip-path="url(#p71fff985a1)" style="fill: none; stroke: #000000; stroke-width: 2; stroke-linecap: round"/>
   </g>
   <g id="line2d_2">
    <path d="M 65.2752 161.0688 
L 47.9952 161.0688 
" clip-path="url(#p71fff985a1)" style="fill: none; stroke: #000000; stroke-width: 2; stroke-linecap: round"/>
   </g>
   <g id="line2d_3">
    <path d="M 65.2752 140.3328 
L 47.9952 140.3328 
" clip-path="url(#p71fff985a1)" style="fill: none; stroke: #000000; stroke-width: 2; stroke-linecap: round"/>
   </g>
   <g id="line2d_4">
    <path d="M 182.7792 275.1168 
L 200.0592 275.1168 
" clip-path="url(#p71fff985a1)" style="fill: none; stroke: #000000; stroke-width: 2; stroke-linecap: round"/>
   </g>
   <g id="line2d_5">
    <path d="M 182.7792 254.3808 
L 200.0592 254.3808 
" clip-path="url(#p71fff985a1)" style="fill: none; stroke: #000000; stroke-width: 2; stroke-linecap: round"/>
   </g>
   <g id="line2d_6">
    <path d="M 182.7792 233.6448 
L 200.0592 233.6448 
" clip-path="url(#p71fff985a1)" style="fill: none; stroke: #000000; stroke-width: 2; stroke-linecap: round"/>
   </g>
   <g id="line2d_7">
    <path d="M 182.7792 212.9088 
L 200.0592 212.9088 
" clip-path="url(#p71fff985a1)" style="fill: none; stroke: #000000; stroke-width: 2; stroke-linecap: round"/>
   </g>
   <g id="line2d_8">
    <path d="M 182.7792 192.1728 
L 200.0592 192.1728 
" clip-path="url(#p71fff985a1)" style="fill: none; stroke: #000000; stroke-width: 2; stroke-linecap: round"/>
   </g>
   <g id="line2d_9">
    <path d="M 182.7792 171.4368 
L 200.0592 171.4368 
" clip-path="url(#p71fff985a1)" style="fill: none; stroke: #000000; stroke-width: 2; stroke-linecap: round"/>
   </g>
   <g id="line2d_10">
    <path d="M 182.7792 150.7008 
L 200.0592 150.7008 
" clip-path="url(#p71fff985a1)" style="fill: none; stroke: #000000; stroke-width: 2; stroke-linecap: round"/>
   </g>
   <g id="line2d_11">
    <path d="M 182.7792 129.9648 
L 200.0592 129.9648 
" clip-path="url(#p71fff985a1)" style="fill: none; stroke: #000000; stroke-width: 2; stroke-linecap: round"/>
   </g>
   <g id="line2d_12">
    <path d="M 182.7792 109.2288 
L 200.0592 109.2288 
" clip-path="url(#p71fff985a1)" style="fill: none; stroke: #000000; stroke-width: 2; stroke-linecap: round"/>
   </g>
   <g id="line2d_13">
    <path d="M 182.7792 88.4928 
L 200.0592 88.4928 
" clip-path="url(#p71fff985a1)" style="fill: none; stroke: #000000; stroke-width: 2; stroke-linecap: round"/>
   </g>
   <g id="line2d_14">
    <path d="M 182.7792 67.7568 
L 200.0592 67.7568 
" clip-path="url(#p71fff985a1)" style="fill: none; stroke: #000000; stroke-width: 2; stroke-linecap: round"/>
   </g>
   <g id="line2d_15">
    <path d="M 182.7792 47.0208 
L 200.0592 47.0208 
" clip-path="url(#p71fff985a1)" style="fill: none; stroke: #000000; stroke-width: 2; stroke-linecap: round"/>
   </g>
   <g id="line2d_16">
    <path d="M 182.7792 26.2848 
L 200.0592 26.2848 
" clip-path="url(#p71fff985a1)" style="fill: none; stroke: #000000; stroke-width: 2; stroke-linecap: round"/>
   </g>
   <g id="line2d_17">
    <path d="M 338.2992 275.1168 
L 435.0672 275.1168 
L 435.0672 9.0048 
L 338.2992 9.0048 
L 338.2992 275.1168 
" clip-path="url(#p71fff985a1)" style="fill: none; stroke: #000000; stroke-width: 2; stroke-linecap: round"/>
   </g>
   <g id="line2d_18">
    <path d="M 338.2992 266.4768 
L 321.0192 266.4768 
" clip-path="url(#p71fff985a1)" style="fill: none; stroke: #000000; stroke-width: 2; stroke-linecap: round"/>
   </g>
   <g id="line2d_19">
    <path d="M 338.2992 245.7408 
L 321.0192 245.7408 
" clip-path="url(#p71fff985a1)" style="fill: none; stroke: #000000; stroke-width: 2; stroke-linecap: round"/>
   </g>
   <g id="line2d_20">
    <path d="M 338.2992 225.0048 
L 321.0192 225.0048 
" clip-path="url(#p71fff985a1)" style="fill: none; stroke: #000000; stroke-width: 2; stroke-linecap: round"/>
   </g>
   <g id="line2d_21">
    <path d="M 338.2992 204.2688 
L 321.0192 204.2688 
" clip-path="url(#p71fff985a1)" style="fill: none; stroke: #000000; stroke-width: 2; stroke-linecap: round"/>
   </g>
   <g id="line2d_22">
    <path d="M 338.2992 183.5328 
L 321.0192 183.5328 
" clip-path="url(#p71fff985a1)" style="fill: none; stroke: #000000; stroke-width: 2; stroke-linecap: round"/>
   </g>
   <g id="line2d_23">
    <path d="M 338.2992 162.7968 
L 321.0192 162.7968 
" clip-path="url(#p71fff985a1)" style="fill: none; stroke: #000000; stroke-width: 2; stroke-linecap: round"/>
   </g>
   <g id="line2d_24">
    <path d="M 338.2992 142.0608 
L 321.0192 142.0608 
" clip-path="url(#p71fff985a1)" style="fill: none; stroke: #000000; stroke-width: 2; stroke-linecap: round"/>
   </g>
   <g id="line2d_25">
    <path d="M 338.2992 121.3248 
L 321.0192 121.3248 
" clip-path="url(#p71fff985a1)" style="fill: none; stroke: #000000; stroke-width: 2; stroke-linecap: round"/>
   </g>
   <g id="line2d_26">
    <path d="M 338.2992 100.5888 
L 321.0192 100.5888 
" clip-path="url(#p71fff985a1)" style="fill: none; stroke: #000000; stroke-width: 2; stroke-linecap: round"/>
   </g>
   <g id="line2d_27">
    <path d="M 338.2992 79.8528 
L 321.0192 79.8528 
" clip-path="url(#p71fff985a1)" style="fill: none; stroke: #000000; stroke-width: 2; stroke-linecap: round"/>
   </g>
   <g id="line2d_28">
    <path d="M 338.2992 59.1168 
L 321.0192 59.1168 
" clip-path="url(#p71fff985a1)" style="fill: none; stroke: #000000; stroke-width: 2; stroke-linecap: round"/>
   </g>
   <g id="line2d_29">
    <path d="M 338.2992 38.3808 
L 321.0192 38.3808 
" clip-path="url(#p71fff985a1)" style="fill: none; stroke: #000000; stroke-width: 2; stroke-linecap: round"/>
   </g>
   <g id="line2d_30">
    <path d="M 338.2992 17.6448 
L 321.0192 17.6448 
" clip-path="url(#p71fff985a1)" style="fill: none; stroke: #000000; stroke-width: 2; stroke-linecap: round"/>
   </g>
   <g id="line2d_31">
    <path d="M 435.0672 142.0608 
L 452.3472 142.0608 
" clip-path="url(#p71fff985a1)" style="fill: none; stroke: #000000; stroke-width: 2; stroke-linecap: round"/>
   </g>
   <g id="line2d_32">
    <path d="M 200.0592 275.1168 
L 260.5392 270.7968 
L 321.0192 266.4768 
" clip-path="url(#p71fff985a1)" style="fill: none; stroke: #000000; stroke-width: 2; stroke-linecap: round"/>
   </g>
   <g id="line2d_33">
    <path d="M 200.0592 254.3808 
L 260.5392 250.0608 
L 321.0192 245.7408 
" clip-path="url(#p71fff985a1)" style="fill: none; stroke: #000000; stroke-width: 2; stroke-linecap: round"/>
   </g>
   <g id="line2d_34">
    <path d="M 200.0592 233.6448 
L 260.5392 229.3248 
L 321.0192 225.0048 
" clip-path="url(#p71fff985a1)" style="fill: none; stroke: #000000; stroke-width: 2; stroke-linecap: round"/>
   </g>
   <g id="line2d_35">
    <path d="M 200.0592 212.9088 
L 260.5392 208.5888 
L 321.0192 204.2688 
" clip-path="url(#p71fff985a1)" style="fill: none; stroke: #000000; stroke-width: 2; stroke-linecap: round"/>
   </g>
   <g id="line2d_36">
    <path d="M 200.0592 192.1728 
L 260.5392 187.8528 
L 321.0192 183.5328 
" clip-path="url(#p71fff985a1)" style="fill: none; stroke: #000000; stroke-width: 2; stroke-linecap: round"/>
   </g>
   <g id="line2d_37">
    <path d="M 200.0592 171.4368 
L 260.5392 167.1168 
L 321.0192 162.7968 
" clip-path="url(#p71fff985a1)" style="fill: none; stroke: #000000; stroke-width: 2; stroke-linecap: round"/>
   </g>
   <g id="line2d_38">
    <path d="M 200.0592 150.7008 
L 260.5392 146.3808 
L 321.0192 142.0608 
" clip-path="url(#p71fff985a1)" style="fill: none; stroke: #000000; stroke-width: 2; stroke-linecap: round"/>
   </g>
   <g id="line2d_39">
    <path d="M 200.0592 129.9648 
L 260.5392 125.6448 
L 321.0192 121.3248 
" clip-path="url(#p71fff985a1)" style="fill: none; stroke: #000000; stroke-width: 2; stroke-linecap: round"/>
   </g>
   <g id="line2d_40">
    <path d="M 200.0592 109.2288 
L 260.5392 104.9088 
L 321.0192 100.5888 
" clip-path="url(#p71fff985a1)" style="fill: none; stroke: #000000; stroke-width: 2; stroke-linecap: round"/>
   </g>
   <g id="line2d_41">
    <path d="M 200.0592 88.4928 
L 260.5392 84.1728 
L 321.0192 79.8528 
" clip-path="url(#p71fff985a1)" style="fill: none; stroke: #000000; stroke-width: 2; stroke-linecap: round"/>
   </g>
   <g id="line2d_42">
    <path d="M 200.0592 67.7568 
L 260.5392 63.4368 
L 321.0192 59.1168 
" clip-path="url(#p71fff985a1)" style="fill: none; stroke: #000000; stroke-width: 2; stroke-linecap: round"/>
   </g>
   <g id="line2d_43">
    <path d="M 200.0592 47.0208 
L 260.5392 42.7008 
L 321.0192 38.3808 
" clip-path="url(#p71fff985a1)" style="fill: none; stroke: #000000; stroke-width: 2; stroke-linecap: round"/>
   </g>
   <g id="line2d_44">
    <path d="M 200.0592 26.2848 
L 260.5392 21.9648 
L 321.0192 17.6448 
" clip-path="url(#p71fff985a1)" style="fill: none; stroke: #000000; stroke-width: 2; stroke-linecap: round"/>
   </g>
   <g id="line2d_45">
    <path d="M 47.9952 161.0688 
L 47.9952 174.8928 
L 39.3552 174.8928 
L 56.6352 174.8928 
M 41.9472 179.04 
L 54.0432 179.04 
M 46.2672 183.1872 
L 49.7232 183.1872 
" clip-path="url(#p71fff985a1)" style="fill: none; stroke: #000000; stroke-width: 2; stroke-linecap: round"/>
   </g>
   <g id="line2d_46">
    <path d="M 47.9952 140.3328 
L 37.6272 140.3328 
L 27.2592 140.3328 
" clip-path="url(#p71fff985a1)" style="fill: none; stroke: #000000; stroke-width: 2; stroke-linecap: round"/>
   </g>
   <g id="line2d_47">
    <path d="M 452.3472 142.0608 
L 452.3472 155.8848 
L 443.7072 155.8848 
L 460.9872 155.8848 
M 446.2992 160.032 
L 458.3952 160.032 
M 450.6192 164.1792 
L 454.0752 164.1792 
" clip-path="url(#p71fff985a1)" style="fill: none; stroke: #000000; stroke-width: 2; stroke-linecap: round"/>
   </g>
   <g id="text_1">
    <!-- GND -->
    <g transform="translate(70.4592 164.931925) scale(0.14 -0.14)">
     <defs>
      <path id="DejaVuSans-47" d="M 3809 666 
L 3809 1919 
L 2778 1919 
L 2778 2438 
L 4434 2438 
L 4434 434 
Q 4069 175 3628 42 
Q 3188 -91 2688 -91 
Q 1594 -91 976 548 
Q 359 1188 359 2328 
Q 359 3472 976 4111 
Q 1594 4750 2688 4750 
Q 3144 4750 3555 4637 
Q 3966 4525 4313 4306 
L 4313 3634 
Q 3963 3931 3569 4081 
Q 3175 4231 2741 4231 
Q 1884 4231 1454 3753 
Q 1025 3275 1025 2328 
Q 1025 1384 1454 906 
Q 1884 428 2741 428 
Q 3075 428 3337 486 
Q 3600 544 3809 666 
z
" transform="scale(0.015625)"/>
      <path id="DejaVuSans-4e" d="M 628 4666 
L 1478 4666 
L 3547 763 
L 3547 4666 
L 4159 4666 
L 4159 0 
L 3309 0 
L 1241 3903 
L 1241 0 
L 628 0 
L 628 4666 
z
" transform="scale(0.015625)"/>
      <path id="DejaVuSans-44" d="M 1259 4147 
L 1259 519 
L 2022 519 
Q 2988 519 3436 956 
Q 3884 1394 3884 2338 
Q 3884 3275 3436 3711 
Q 2988 4147 2022 4147 
L 1259 4147 
z
M 628 4666 
L 1925 4666 
Q 3281 4666 3915 4102 
Q 4550 3538 4550 2338 
Q 4550 1131 3912 565 
Q 3275 0 1925 0 
L 628 0 
L 628 4666 
z
" transform="scale(0.015625)"/>
     </defs>
     <use xlink:href="#DejaVuSans-47"/>
     <use xlink:href="#DejaVuSans-4e" x="77.490234"/>
     <use xlink:href="#DejaVuSans-44" x="152.294922"/>
    </g>
   </g>
   <g id="text_2">
    <!-- +3.3V -->
    <g transform="translate(70.4592 144.195925) scale(0.14 -0.14)">
     <defs>
      <path id="DejaVuSans-2b" d="M 2944 4013 
L 2944 2272 
L 4684 2272 
L 4684 1741 
L 2944 1741 
L 2944 0 
L 2419 0 
L 2419 1741 
L 678 1741 
L 678 2272 
L 2419 2272 
L 2419 4013 
L 2944 4013 
z
" transform="scale(0.015625)"/>
      <path id="DejaVuSans-33" d="M 2597 2516 
Q 3050 2419 3304 2112 
Q 3559 1806 3559 1356 
Q 3559 666 3084 287 
Q 2609 -91 1734 -91 
Q 1441 -91 1130 -33 
Q 819 25 488 141 
L 488 750 
Q 750 597 1062 519 
Q 1375 441 1716 441 
Q 2309 441 2620 675 
Q 2931 909 2931 1356 
Q 2931 1769 2642 2001 
Q 2353 2234 1838 2234 
L 1294 2234 
L 1294 2753 
L 1863 2753 
Q 2328 2753 2575 2939 
Q 2822 3125 2822 3475 
Q 2822 3834 2567 4026 
Q 2313 4219 1838 4219 
Q 1578 4219 1281 4162 
Q 984 4106 628 3988 
L 628 4550 
Q 988 4650 1302 4700 
Q 1616 4750 1894 4750 
Q 2613 4750 3031 4423 
Q 3450 4097 3450 3541 
Q 3450 3153 3228 2886 
Q 3006 2619 2597 2516 
z
" transform="scale(0.015625)"/>
      <path id="DejaVuSans-2e" d="M 684 794 
L 1344 794 
L 1344 0 
L 684 0 
L 684 794 
z
" transform="scale(0.015625)"/>
      <path id="DejaVuSans-56" d="M 1831 0 
L 50 4666 
L 709 4666 
L 2188 738 
L 3669 4666 
L 4325 4666 
L 2547 0 
L 1831 0 
z
" transform="scale(0.015625)"/>
     </defs>
     <use xlink:href="#DejaVuSans-2b"/>
     <use xlink:href="#DejaVuSans-33" x="83.789062"/>
     <use xlink:href="#DejaVuSans-2e" x="147.412109"/>
     <use xlink:href="#DejaVuSans-33" x="179.199219"/>
     <use xlink:href="#DejaVuSans-56" x="242.822266"/>
    </g>
   </g>
   <g id="text_3">
    <!-- GPIO 4 -->
    <g transform="translate(185.3712 270.237144) scale(0.11 -0.11)">
     <defs>
      <path id="DejaVuSans-50" d="M 1259 4147 
L 1259 2394 
L 2053 2394 
Q 2494 2394 2734 2622 
Q 2975 2850 2975 3272 
Q 2975 3691 2734 3919 
Q 2494 4147 2053 4147 
L 1259 4147 
z
M 628 4666 
L 2053 4666 
Q 2838 4666 3239 4311 
Q 3641 3956 3641 3272 
Q 3641 2581 3239 2228 
Q 2838 1875 2053 1875 
L 1259 1875 
L 1259 0 
L 628 0 
L 628 4666 
z
" transform="scale(0.015625)"/>
      <path id="DejaVuSans-49" d="M 628 4666 
L 1259 4666 
L 1259 0 
L 628 0 
L 628 4666 
z
" transform="scale(0.015625)"/>
      <path id="DejaVuSans-4f" d="M 2522 4238 
Q 1834 4238 1429 3725 
Q 1025 3213 1025 2328 
Q 1025 1447 1429 934 
Q 1834 422 2522 422 
Q 3209 422 3611 934 
Q 4013 1447 4013 2328 
Q 4013 3213 3611 3725 
Q 3209 4238 2522 4238 
z
M 2522 4750 
Q 3503 4750 4090 4092 
Q 4678 3434 4678 2328 
Q 4678 1225 4090 567 
Q 3503 -91 2522 -91 
Q 1538 -91 948 565 
Q 359 1222 359 2328 
Q 359 3434 948 4092 
Q 1538 4750 2522 4750 
z
" transform="scale(0.015625)"/>
      <path id="DejaVuSans-20" transform="scale(0.015625)"/>
      <path id="DejaVuSans-34" d="M 2419 4116 
L 825 1625 
L 2419 1625 
L 2419 4116 
z
M 2253 4666 
L 3047 4666 
L 3047 1625 
L 3713 1625 
L 3713 1100 
L 3047 1100 
L 3047 0 
L 2419 0 
L 2419 1100 
L 313 1100 
L 313 1709 
L 2253 4666 
z
" transform="scale(0.015625)"/>
     </defs>
     <use xlink:href="#DejaVuSans-47"/>
     <use xlink:href="#DejaVuSans-50" x="77.490234"/>
     <use xlink:href="#DejaVuSans-49" x="137.792969"/>
     <use xlink:href="#DejaVuSans-4f" x="167.285156"/>
     <use xlink:href="#DejaVuSans-20" x="245.996094"/>
     <use xlink:href="#DejaVuSans-34" x="277.783203"/>
    </g>
   </g>
   <g id="text_4">
    <!-- R1 -->
    <g transform="translate(158.959887 278.979925) scale(0.14 -0.14)">
     <defs>
      <path id="DejaVuSans-52" d="M 2841 2188 
Q 3044 2119 3236 1894 
Q 3428 1669 3622 1275 
L 4263 0 
L 3584 0 
L 2988 1197 
Q 2756 1666 2539 1819 
Q 2322 1972 1947 1972 
L 1259 1972 
L 1259 0 
L 628 0 
L 628 4666 
L 2053 4666 
Q 2853 4666 3247 4331 
Q 3641 3997 3641 3322 
Q 3641 2881 3436 2590 
Q 3231 2300 2841 2188 
z
M 1259 4147 
L 1259 2491 
L 2053 2491 
Q 2509 2491 2742 2702 
Q 2975 2913 2975 3322 
Q 2975 3731 2742 3939 
Q 2509 4147 2053 4147 
L 1259 4147 
z
" transform="scale(0.015625)"/>
      <path id="DejaVuSans-31" d="M 794 531 
L 1825 531 
L 1825 4091 
L 703 3866 
L 703 4441 
L 1819 4666 
L 2450 4666 
L 2450 531 
L 3481 531 
L 3481 0 
L 794 0 
L 794 531 
z
" transform="scale(0.015625)"/>
     </defs>
     <use xlink:href="#DejaVuSans-52"/>
     <use xlink:href="#DejaVuSans-31" x="69.482422"/>
    </g>
   </g>
   <g id="text_5">
    <!-- GPIO 5 -->
    <g transform="translate(185.3712 249.501144) scale(0.11 -0.11)">
     <defs>
      <path id="DejaVuSans-35" d="M 691 4666 
L 3169 4666 
L 3169 4134 
L 1269 4134 
L 1269 2991 
Q 1406 3038 1543 3061 
Q 1681 3084 1819 3084 
Q 2600 3084 3056 2656 
Q 3513 2228 3513 1497 
Q 3513 744 3044 326 
Q 2575 -91 1722 -91 
Q 1428 -91 1123 -41 
Q 819 9 494 109 
L 494 744 
Q 775 591 1075 516 
Q 1375 441 1709 441 
Q 2250 441 2565 725 
Q 2881 1009 2881 1497 
Q 2881 1984 2565 2268 
Q 2250 2553 1709 2553 
Q 1456 2553 1204 2497 
Q 953 2441 691 2322 
L 691 4666 
z
" transform="scale(0.015625)"/>
     </defs>
     <use xlink:href="#DejaVuSans-47"/>
     <use xlink:href="#DejaVuSans-50" x="77.490234"/>
     <use xlink:href="#DejaVuSans-49" x="137.792969"/>
     <use xlink:href="#DejaVuSans-4f" x="167.285156"/>
     <use xlink:href="#DejaVuSans-20" x="245.996094"/>
     <use xlink:href="#DejaVuSans-35" x="277.783203"/>
    </g>
   </g>
   <g id="text_6">
    <!-- G1 -->
    <g transform="translate(157.839887 258.243925) scale(0.14 -0.14)">
     <use xlink:href="#DejaVuSans-47"/>
     <use xlink:href="#DejaVuSans-31" x="77.490234"/>
    </g>
   </g>
   <g id="text_7">
    <!-- GPIO 6 -->
    <g transform="translate(185.3712 228.765144) scale(0.11 -0.11)">
     <defs>
      <path id="DejaVuSans-36" d="M 2113 2584 
Q 1688 2584 1439 2293 
Q 1191 2003 1191 1497 
Q 1191 994 1439 701 
Q 1688 409 2113 409 
Q 2538 409 2786 701 
Q 3034 994 3034 1497 
Q 3034 2003 2786 2293 
Q 2538 2584 2113 2584 
z
M 3366 4563 
L 3366 3988 
Q 3128 4100 2886 4159 
Q 2644 4219 2406 4219 
Q 1781 4219 1451 3797 
Q 1122 3375 1075 2522 
Q 1259 2794 1537 2939 
Q 1816 3084 2150 3084 
Q 2853 3084 3261 2657 
Q 3669 2231 3669 1497 
Q 3669 778 3244 343 
Q 2819 -91 2113 -91 
Q 1303 -91 875 529 
Q 447 1150 447 2328 
Q 447 3434 972 4092 
Q 1497 4750 2381 4750 
Q 2619 4750 2861 4703 
Q 3103 4656 3366 4563 
z
" transform="scale(0.015625)"/>
     </defs>
     <use xlink:href="#DejaVuSans-47"/>
     <use xlink:href="#DejaVuSans-50" x="77.490234"/>
     <use xlink:href="#DejaVuSans-49" x="137.792969"/>
     <use xlink:href="#DejaVuSans-4f" x="167.285156"/>
     <use xlink:href="#DejaVuSans-20" x="245.996094"/>
     <use xlink:href="#DejaVuSans-36" x="277.783203"/>
    </g>
   </g>
   <g id="text_8">
    <!-- B1 -->
    <g transform="translate(159.082387 237.507925) scale(0.14 -0.14)">
     <defs>
      <path id="DejaVuSans-42" d="M 1259 2228 
L 1259 519 
L 2272 519 
Q 2781 519 3026 730 
Q 3272 941 3272 1375 
Q 3272 1813 3026 2020 
Q 2781 2228 2272 2228 
L 1259 2228 
z
M 1259 4147 
L 1259 2741 
L 2194 2741 
Q 2656 2741 2882 2914 
Q 3109 3088 3109 3444 
Q 3109 3797 2882 3972 
Q 2656 4147 2194 4147 
L 1259 4147 
z
M 628 4666 
L 2241 4666 
Q 2963 4666 3353 4366 
Q 3744 4066 3744 3513 
Q 3744 3084 3544 2831 
Q 3344 2578 2956 2516 
Q 3422 2416 3680 2098 
Q 3938 1781 3938 1306 
Q 3938 681 3513 340 
Q 3088 0 2303 0 
L 628 0 
L 628 4666 
z
" transform="scale(0.015625)"/>
     </defs>
     <use xlink:href="#DejaVuSans-42"/>
     <use xlink:href="#DejaVuSans-31" x="68.603516"/>
    </g>
   </g>
   <g id="text_9">
    <!-- GPIO 7 -->
    <g transform="translate(185.3712 208.029144) scale(0.11 -0.11)">
     <defs>
      <path id="DejaVuSans-37" d="M 525 4666 
L 3525 4666 
L 3525 4397 
L 1831 0 
L 1172 0 
L 2766 4134 
L 525 4134 
L 525 4666 
z
" transform="scale(0.015625)"/>
     </defs>
     <use xlink:href="#DejaVuSans-47"/>
     <use xlink:href="#DejaVuSans-50" x="77.490234"/>
     <use xlink:href="#DejaVuSans-49" x="137.792969"/>
     <use xlink:href="#DejaVuSans-4f" x="167.285156"/>
     <use xlink:href="#DejaVuSans-20" x="245.996094"/>
     <use xlink:href="#DejaVuSans-37" x="277.783203"/>
    </g>
   </g>
   <g id="text_10">
    <!-- R2 -->
    <g transform="translate(158.959887 216.771925) scale(0.14 -0.14)">
     <defs>
      <path id="DejaVuSans-32" d="M 1228 531 
L 3431 531 
L 3431 0 
L 469 0 
L 469 531 
Q 828 903 1448 1529 
Q 2069 2156 2228 2338 
Q 2531 2678 2651 2914 
Q 2772 3150 2772 3378 
Q 2772 3750 2511 3984 
Q 2250 4219 1831 4219 
Q 1534 4219 1204 4116 
Q 875 4013 500 3803 
L 500 4441 
Q 881 4594 1212 4672 
Q 1544 4750 1819 4750 
Q 2544 4750 2975 4387 
Q 3406 4025 3406 3419 
Q 3406 3131 3298 2873 
Q 3191 2616 2906 2266 
Q 2828 2175 2409 1742 
Q 1991 1309 1228 531 
z
" transform="scale(0.015625)"/>
     </defs>
     <use xlink:href="#DejaVuSans-52"/>
     <use xlink:href="#DejaVuSans-32" x="69.482422"/>
    </g>
   </g>
   <g id="text_11">
    <!-- GPIO 15 -->
    <g transform="translate(185.3712 187.293144) scale(0.11 -0.11)">
     <use xlink:href="#DejaVuSans-47"/>
     <use xlink:href="#DejaVuSans-50" x="77.490234"/>
     <use xlink:href="#DejaVuSans-49" x="137.792969"/>
     <use xlink:href="#DejaVuSans-4f" x="167.285156"/>
     <use xlink:href="#DejaVuSans-20" x="245.996094"/>
     <use xlink:href="#DejaVuSans-31" x="277.783203"/>
     <use xlink:href="#DejaVuSans-35" x="341.40625"/>
    </g>
   </g>
   <g id="text_12">
    <!-- G2 -->
    <g transform="translate(157.839887 196.035925) scale(0.14 -0.14)">
     <use xlink:href="#DejaVuSans-47"/>
     <use xlink:href="#DejaVuSans-32" x="77.490234"/>
    </g>
   </g>
   <g id="text_13">
    <!-- GPIO 16 -->
    <g transform="translate(185.3712 166.557144) scale(0.11 -0.11)">
     <use xlink:href="#DejaVuSans-47"/>
     <use xlink:href="#DejaVuSans-50" x="77.490234"/>
     <use xlink:href="#DejaVuSans-49" x="137.792969"/>
     <use xlink:href="#DejaVuSans-4f" x="167.285156"/>
     <use xlink:href="#DejaVuSans-20" x="245.996094"/>
     <use xlink:href="#DejaVuSans-31" x="277.783203"/>
     <use xlink:href="#DejaVuSans-36" x="341.40625"/>
    </g>
   </g>
   <g id="text_14">
    <!-- B2 -->
    <g transform="translate(159.082387 175.299925) scale(0.14 -0.14)">
     <use xlink:href="#DejaVuSans-42"/>
     <use xlink:href="#DejaVuSans-32" x="68.603516"/>
    </g>
   </g>
   <g id="text_15">
    <!-- GPIO 36 -->
    <g transform="translate(185.3712 145.821144) scale(0.11 -0.11)">
     <use xlink:href="#DejaVuSans-47"/>
     <use xlink:href="#DejaVuSans-50" x="77.490234"/>
     <use xlink:href="#DejaVuSans-49" x="137.792969"/>
     <use xlink:href="#DejaVuSans-4f" x="167.285156"/>
     <use xlink:href="#DejaVuSans-20" x="245.996094"/>
     <use xlink:href="#DejaVuSans-33" x="277.783203"/>
     <use xlink:href="#DejaVuSans-36" x="341.40625"/>
    </g>
   </g>
   <g id="text_16">
    <!-- A -->
    <g transform="translate(168.018325 154.563925) scale(0.14 -0.14)">
     <defs>
      <path id="DejaVuSans-41" d="M 2188 4044 
L 1331 1722 
L 3047 1722 
L 2188 4044 
z
M 1831 4666 
L 2547 4666 
L 4325 0 
L 3669 0 
L 3244 1197 
L 1141 1197 
L 716 0 
L 50 0 
L 1831 4666 
z
" transform="scale(0.015625)"/>
     </defs>
     <use xlink:href="#DejaVuSans-41"/>
    </g>
   </g>
   <g id="text_17">
    <!-- GPIO 37 -->
    <g transform="translate(185.3712 125.085144) scale(0.11 -0.11)">
     <use xlink:href="#DejaVuSans-47"/>
     <use xlink:href="#DejaVuSans-50" x="77.490234"/>
     <use xlink:href="#DejaVuSans-49" x="137.792969"/>
     <use xlink:href="#DejaVuSans-4f" x="167.285156"/>
     <use xlink:href="#DejaVuSans-20" x="245.996094"/>
     <use xlink:href="#DejaVuSans-33" x="277.783203"/>
     <use xlink:href="#DejaVuSans-37" x="341.40625"/>
    </g>
   </g>
   <g id="text_18">
    <!-- B -->
    <g transform="translate(167.989887 133.827925) scale(0.14 -0.14)">
     <use xlink:href="#DejaVuSans-42"/>
    </g>
   </g>
   <g id="text_19">
    <!-- GPIO 38 -->
    <g transform="translate(185.3712 104.349144) scale(0.11 -0.11)">
     <defs>
      <path id="DejaVuSans-38" d="M 2034 2216 
Q 1584 2216 1326 1975 
Q 1069 1734 1069 1313 
Q 1069 891 1326 650 
Q 1584 409 2034 409 
Q 2484 409 2743 651 
Q 3003 894 3003 1313 
Q 3003 1734 2745 1975 
Q 2488 2216 2034 2216 
z
M 1403 2484 
Q 997 2584 770 2862 
Q 544 3141 544 3541 
Q 544 4100 942 4425 
Q 1341 4750 2034 4750 
Q 2731 4750 3128 4425 
Q 3525 4100 3525 3541 
Q 3525 3141 3298 2862 
Q 3072 2584 2669 2484 
Q 3125 2378 3379 2068 
Q 3634 1759 3634 1313 
Q 3634 634 3220 271 
Q 2806 -91 2034 -91 
Q 1263 -91 848 271 
Q 434 634 434 1313 
Q 434 1759 690 2068 
Q 947 2378 1403 2484 
z
M 1172 3481 
Q 1172 3119 1398 2916 
Q 1625 2713 2034 2713 
Q 2441 2713 2670 2916 
Q 2900 3119 2900 3481 
Q 2900 3844 2670 4047 
Q 2441 4250 2034 4250 
Q 1625 4250 1398 4047 
Q 1172 3844 1172 3481 
z
" transform="scale(0.015625)"/>
     </defs>
     <use xlink:href="#DejaVuSans-47"/>
     <use xlink:href="#DejaVuSans-50" x="77.490234"/>
     <use xlink:href="#DejaVuSans-49" x="137.792969"/>
     <use xlink:href="#DejaVuSans-4f" x="167.285156"/>
     <use xlink:href="#DejaVuSans-20" x="245.996094"/>
     <use xlink:href="#DejaVuSans-33" x="277.783203"/>
     <use xlink:href="#DejaVuSans-38" x="341.40625"/>
    </g>
   </g>
   <g id="text_20">
    <!-- C -->
    <g transform="translate(167.819262 113.091925) scale(0.14 -0.14)">
     <defs>
      <path id="DejaVuSans-43" d="M 4122 4306 
L 4122 3641 
Q 3803 3938 3442 4084 
Q 3081 4231 2675 4231 
Q 1875 4231 1450 3742 
Q 1025 3253 1025 2328 
Q 1025 1406 1450 917 
Q 1875 428 2675 428 
Q 3081 428 3442 575 
Q 3803 722 4122 1019 
L 4122 359 
Q 3791 134 3420 21 
Q 3050 -91 2638 -91 
Q 1578 -91 968 557 
Q 359 1206 359 2328 
Q 359 3453 968 4101 
Q 1578 4750 2638 4750 
Q 3056 4750 3426 4639 
Q 3797 4528 4122 4306 
z
" transform="scale(0.015625)"/>
     </defs>
     <use xlink:href="#DejaVuSans-43"/>
    </g>
   </g>
   <g id="text_21">
    <!-- GPIO 39 -->
    <g transform="translate(185.3712 83.613144) scale(0.11 -0.11)">
     <defs>
      <path id="DejaVuSans-39" d="M 703 97 
L 703 672 
Q 941 559 1184 500 
Q 1428 441 1663 441 
Q 2288 441 2617 861 
Q 2947 1281 2994 2138 
Q 2813 1869 2534 1725 
Q 2256 1581 1919 1581 
Q 1219 1581 811 2004 
Q 403 2428 403 3163 
Q 403 3881 828 4315 
Q 1253 4750 1959 4750 
Q 2769 4750 3195 4129 
Q 3622 3509 3622 2328 
Q 3622 1225 3098 567 
Q 2575 -91 1691 -91 
Q 1453 -91 1209 -44 
Q 966 3 703 97 
z
M 1959 2075 
Q 2384 2075 2632 2365 
Q 2881 2656 2881 3163 
Q 2881 3666 2632 3958 
Q 2384 4250 1959 4250 
Q 1534 4250 1286 3958 
Q 1038 3666 1038 3163 
Q 1038 2656 1286 2365 
Q 1534 2075 1959 2075 
z
" transform="scale(0.015625)"/>
     </defs>
     <use xlink:href="#DejaVuSans-47"/>
     <use xlink:href="#DejaVuSans-50" x="77.490234"/>
     <use xlink:href="#DejaVuSans-49" x="137.792969"/>
     <use xlink:href="#DejaVuSans-4f" x="167.285156"/>
     <use xlink:href="#DejaVuSans-20" x="245.996094"/>
     <use xlink:href="#DejaVuSans-33" x="277.783203"/>
     <use xlink:href="#DejaVuSans-39" x="341.40625"/>
    </g>
   </g>
   <g id="text_22">
    <!-- D -->
    <g transform="translate(166.8152 92.355925) scale(0.14 -0.14)">
     <use xlink:href="#DejaVuSans-44"/>
    </g>
   </g>
   <g id="text_23">
    <!-- GPIO 2 -->
    <g transform="translate(185.3712 62.877144) scale(0.11 -0.11)">
     <use xlink:href="#DejaVuSans-47"/>
     <use xlink:href="#DejaVuSans-50" x="77.490234"/>
     <use xlink:href="#DejaVuSans-49" x="137.792969"/>
     <use xlink:href="#DejaVuSans-4f" x="167.285156"/>
     <use xlink:href="#DejaVuSans-20" x="245.996094"/>
     <use xlink:href="#DejaVuSans-32" x="277.783203"/>
    </g>
   </g>
   <g id="text_24">
    <!-- CLK -->
    <g transform="translate(150.8377 71.619925) scale(0.14 -0.14)">
     <defs>
      <path id="DejaVuSans-4c" d="M 628 4666 
L 1259 4666 
L 1259 531 
L 3531 531 
L 3531 0 
L 628 0 
L 628 4666 
z
" transform="scale(0.015625)"/>
      <path id="DejaVuSans-4b" d="M 628 4666 
L 1259 4666 
L 1259 2694 
L 3353 4666 
L 4166 4666 
L 1850 2491 
L 4331 0 
L 3500 0 
L 1259 2247 
L 1259 0 
L 628 0 
L 628 4666 
z
" transform="scale(0.015625)"/>
     </defs>
     <use xlink:href="#DejaVuSans-43"/>
     <use xlink:href="#DejaVuSans-4c" x="69.824219"/>
     <use xlink:href="#DejaVuSans-4b" x="125.537109"/>
    </g>
   </g>
   <g id="text_25">
    <!-- GPIO 47 -->
    <g transform="translate(185.3712 42.141144) scale(0.11 -0.11)">
     <use xlink:href="#DejaVuSans-47"/>
     <use xlink:href="#DejaVuSans-50" x="77.490234"/>
     <use xlink:href="#DejaVuSans-49" x="137.792969"/>
     <use xlink:href="#DejaVuSans-4f" x="167.285156"/>
     <use xlink:href="#DejaVuSans-20" x="245.996094"/>
     <use xlink:href="#DejaVuSans-34" x="277.783203"/>
     <use xlink:href="#DejaVuSans-37" x="341.40625"/>
    </g>
   </g>
   <g id="text_26">
    <!-- LAT -->
    <g transform="translate(152.436762 50.883925) scale(0.14 -0.14)">
     <defs>
      <path id="DejaVuSans-54" d="M -19 4666 
L 3928 4666 
L 3928 4134 
L 2272 4134 
L 2272 0 
L 1638 0 
L 1638 4134 
L -19 4134 
L -19 4666 
z
" transform="scale(0.015625)"/>
     </defs>
     <use xlink:href="#DejaVuSans-4c"/>
     <use xlink:href="#DejaVuSans-41" x="57.962891"/>
     <use xlink:href="#DejaVuSans-54" x="118.621094"/>
    </g>
   </g>
   <g id="text_27">
    <!-- GPIO 48 -->
    <g transform="translate(185.3712 21.405144) scale(0.11 -0.11)">
     <use xlink:href="#DejaVuSans-47"/>
     <use xlink:href="#DejaVuSans-50" x="77.490234"/>
     <use xlink:href="#DejaVuSans-49" x="137.792969"/>
     <use xlink:href="#DejaVuSans-4f" x="167.285156"/>
     <use xlink:href="#DejaVuSans-20" x="245.996094"/>
     <use xlink:href="#DejaVuSans-34" x="277.783203"/>
     <use xlink:href="#DejaVuSans-38" x="341.40625"/>
    </g>
   </g>
   <g id="text_28">
    <!-- OE -->
    <g transform="translate(157.728325 30.147925) scale(0.14 -0.14)">
     <defs>
      <path id="DejaVuSans-45" d="M 628 4666 
L 3578 4666 
L 3578 4134 
L 1259 4134 
L 1259 2753 
L 3481 2753 
L 3481 2222 
L 1259 2222 
L 1259 531 
L 3634 531 
L 3634 0 
L 628 0 
L 628 4666 
z
" transform="scale(0.015625)"/>
     </defs>
     <use xlink:href="#DejaVuSans-4f"/>
     <use xlink:href="#DejaVuSans-45" x="78.710938"/>
    </g>
   </g>
   <g id="text_29">
    <!-- ESP32-S3 -->
    <g transform="translate(103.612887 150.004175) scale(0.1 -0.1)">
     <defs>
      <path id="DejaVuSans-53" d="M 3425 4513 
L 3425 3897 
Q 3066 4069 2747 4153 
Q 2428 4238 2131 4238 
Q 1616 4238 1336 4038 
Q 1056 3838 1056 3469 
Q 1056 3159 1242 3001 
Q 1428 2844 1947 2747 
L 2328 2669 
Q 3034 2534 3370 2195 
Q 3706 1856 3706 1288 
Q 3706 609 3251 259 
Q 2797 -91 1919 -91 
Q 1588 -91 1214 -16 
Q 841 59 441 206 
L 441 856 
Q 825 641 1194 531 
Q 1563 422 1919 422 
Q 2459 422 2753 634 
Q 3047 847 3047 1241 
Q 3047 1584 2836 1778 
Q 2625 1972 2144 2069 
L 1759 2144 
Q 1053 2284 737 2584 
Q 422 2884 422 3419 
Q 422 4038 858 4394 
Q 1294 4750 2059 4750 
Q 2388 4750 2728 4690 
Q 3069 4631 3425 4513 
z
" transform="scale(0.015625)"/>
      <path id="DejaVuSans-2d" d="M 313 2009 
L 1997 2009 
L 1997 1497 
L 313 1497 
L 313 2009 
z
" transform="scale(0.015625)"/>
     </defs>
     <use xlink:href="#DejaVuSans-45"/>
     <use xlink:href="#DejaVuSans-53" x="63.183594"/>
     <use xlink:href="#DejaVuSans-50" x="126.660156"/>
     <use xlink:href="#DejaVuSans-33" x="186.962891"/>
     <use xlink:href="#DejaVuSans-32" x="250.585938"/>
     <use xlink:href="#DejaVuSans-2d" x="314.208984"/>
     <use xlink:href="#DejaVuSans-53" x="350.292969"/>
     <use xlink:href="#DejaVuSans-33" x="413.769531"/>
    </g>
   </g>
   <g id="text_30">
    <!-- 1 -->
    <g transform="translate(328.70845 261.597144) scale(0.11 -0.11)">
     <use xlink:href="#DejaVuSans-31"/>
    </g>
   </g>
   <g id="text_31">
    <!-- R1 -->
    <g transform="translate(343.4832 270.339925) scale(0.14 -0.14)">
     <use xlink:href="#DejaVuSans-52"/>
     <use xlink:href="#DejaVuSans-31" x="69.482422"/>
    </g>
   </g>
   <g id="text_32">
    <!-- 2 -->
    <g transform="translate(328.70845 240.861144) scale(0.11 -0.11)">
     <use xlink:href="#DejaVuSans-32"/>
    </g>
   </g>
   <g id="text_33">
    <!-- G1 -->
    <g transform="translate(343.4832 249.603925) scale(0.14 -0.14)">
     <use xlink:href="#DejaVuSans-47"/>
     <use xlink:href="#DejaVuSans-31" x="77.490234"/>
    </g>
   </g>
   <g id="text_34">
    <!-- 3 -->
    <g transform="translate(328.70845 220.125144) scale(0.11 -0.11)">
     <use xlink:href="#DejaVuSans-33"/>
    </g>
   </g>
   <g id="text_35">
    <!-- B1 -->
    <g transform="translate(343.4832 228.867925) scale(0.14 -0.14)">
     <use xlink:href="#DejaVuSans-42"/>
     <use xlink:href="#DejaVuSans-31" x="68.603516"/>
    </g>
   </g>
   <g id="text_36">
    <!-- 4 -->
    <g transform="translate(328.70845 199.389144) scale(0.11 -0.11)">
     <use xlink:href="#DejaVuSans-34"/>
    </g>
   </g>
   <g id="text_37">
    <!-- R2 -->
    <g transform="translate(343.4832 208.131925) scale(0.14 -0.14)">
     <use xlink:href="#DejaVuSans-52"/>
     <use xlink:href="#DejaVuSans-32" x="69.482422"/>
    </g>
   </g>
   <g id="text_38">
    <!-- 5 -->
    <g transform="translate(328.70845 178.653144) scale(0.11 -0.11)">
     <use xlink:href="#DejaVuSans-35"/>
    </g>
   </g>
   <g id="text_39">
    <!-- G2 -->
    <g transform="translate(343.4832 187.395925) scale(0.14 -0.14)">
     <use xlink:href="#DejaVuSans-47"/>
     <use xlink:href="#DejaVuSans-32" x="77.490234"/>
    </g>
   </g>
   <g id="text_40">
    <!-- 6 -->
    <g transform="translate(328.70845 157.917144) scale(0.11 -0.11)">
     <use xlink:href="#DejaVuSans-36"/>
    </g>
   </g>
   <g id="text_41">
    <!-- B2 -->
    <g transform="translate(343.4832 166.659925) scale(0.14 -0.14)">
     <use xlink:href="#DejaVuSans-42"/>
     <use xlink:href="#DejaVuSans-32" x="68.603516"/>
    </g>
   </g>
   <g id="text_42">
    <!-- 7 -->
    <g transform="translate(328.70845 137.181144) scale(0.11 -0.11)">
     <use xlink:href="#DejaVuSans-37"/>
    </g>
   </g>
   <g id="text_43">
    <!-- A -->
    <g transform="translate(343.4832 145.923925) scale(0.14 -0.14)">
     <use xlink:href="#DejaVuSans-41"/>
    </g>
   </g>
   <g id="text_44">
    <!-- 8 -->
    <g transform="translate(328.70845 116.445144) scale(0.11 -0.11)">
     <use xlink:href="#DejaVuSans-38"/>
    </g>
   </g>
   <g id="text_45">
    <!-- B -->
    <g transform="translate(343.4832 125.187925) scale(0.14 -0.14)">
     <use xlink:href="#DejaVuSans-42"/>
    </g>
   </g>
   <g id="text_46">
    <!-- 9 -->
    <g transform="translate(328.70845 95.709144) scale(0.11 -0.11)">
     <use xlink:href="#DejaVuSans-39"/>
    </g>
   </g>
   <g id="text_47">
    <!-- C -->
    <g transform="translate(343.4832 104.451925) scale(0.14 -0.14)">
     <use xlink:href="#DejaVuSans-43"/>
    </g>
   </g>
   <g id="text_48">
    <!-- 10 -->
    <g transform="translate(321.7097 74.973144) scale(0.11 -0.11)">
     <defs>
      <path id="DejaVuSans-30" d="M 2034 4250 
Q 1547 4250 1301 3770 
Q 1056 3291 1056 2328 
Q 1056 1369 1301 889 
Q 1547 409 2034 409 
Q 2525 409 2770 889 
Q 3016 1369 3016 2328 
Q 3016 3291 2770 3770 
Q 2525 4250 2034 4250 
z
M 2034 4750 
Q 2819 4750 3233 4129 
Q 3647 3509 3647 2328 
Q 3647 1150 3233 529 
Q 2819 -91 2034 -91 
Q 1250 -91 836 529 
Q 422 1150 422 2328 
Q 422 3509 836 4129 
Q 1250 4750 2034 4750 
z
" transform="scale(0.015625)"/>
     </defs>
     <use xlink:href="#DejaVuSans-31"/>
     <use xlink:href="#DejaVuSans-30" x="63.623047"/>
    </g>
   </g>
   <g id="text_49">
    <!-- D -->
    <g transform="translate(343.4832 83.715925) scale(0.14 -0.14)">
     <use xlink:href="#DejaVuSans-44"/>
    </g>
   </g>
   <g id="text_50">
    <!-- 11 -->
    <g transform="translate(321.7097 54.237144) scale(0.11 -0.11)">
     <use xlink:href="#DejaVuSans-31"/>
     <use xlink:href="#DejaVuSans-31" x="63.623047"/>
    </g>
   </g>
   <g id="text_51">
    <!-- CLK -->
    <g transform="translate(343.4832 62.979925) scale(0.14 -0.14)">
     <use xlink:href="#DejaVuSans-43"/>
     <use xlink:href="#DejaVuSans-4c" x="69.824219"/>
     <use xlink:href="#DejaVuSans-4b" x="125.537109"/>
    </g>
   </g>
   <g id="text_52">
    <!-- 12 -->
    <g transform="translate(321.7097 33.501144) scale(0.11 -0.11)">
     <use xlink:href="#DejaVuSans-31"/>
     <use xlink:href="#DejaVuSans-32" x="63.623047"/>
    </g>
   </g>
   <g id="text_53">
    <!-- LAT -->
    <g transform="translate(343.4832 42.243925) scale(0.14 -0.14)">
     <use xlink:href="#DejaVuSans-4c"/>
     <use xlink:href="#DejaVuSans-41" x="57.962891"/>
     <use xlink:href="#DejaVuSans-54" x="118.621094"/>
    </g>
   </g>
   <g id="text_54">
    <!-- 13 -->
    <g transform="translate(321.7097 12.765144) scale(0.11 -0.11)">
     <use xlink:href="#DejaVuSans-31"/>
     <use xlink:href="#DejaVuSans-33" x="63.623047"/>
    </g>
   </g>
   <g id="text_55">
    <!-- OE -->
    <g transform="translate(343.4832 21.507925) scale(0.14 -0.14)">
     <use xlink:href="#DejaVuSans-4f"/>
     <use xlink:href="#DejaVuSans-45" x="78.710938"/>
    </g>
   </g>
   <g id="text_56">
    <!-- 14,16 -->
    <g transform="translate(437.6592 137.181144) scale(0.11 -0.11)">
     <defs>
      <path id="DejaVuSans-2c" d="M 750 794 
L 1409 794 
L 1409 256 
L 897 -744 
L 494 -744 
L 750 256 
L 750 794 
z
" transform="scale(0.015625)"/>
     </defs>
     <use xlink:href="#DejaVuSans-31"/>
     <use xlink:href="#DejaVuSans-34" x="63.623047"/>
     <use xlink:href="#DejaVuSans-2c" x="127.246094"/>
     <use xlink:href="#DejaVuSans-31" x="159.033203"/>
     <use xlink:href="#DejaVuSans-36" x="222.65625"/>
    </g>
   </g>
   <g id="text_57">
    <!-- GND -->
    <g transform="translate(397.781638 145.923925) scale(0.14 -0.14)">
     <use xlink:href="#DejaVuSans-47"/>
     <use xlink:href="#DejaVuSans-4e" x="77.490234"/>
     <use xlink:href="#DejaVuSans-44" x="152.294922"/>
    </g>
   </g>
   <g id="text_58">
    <!-- HUB75 -->
    <g transform="translate(374.64795 136.733081) scale(0.09 -0.09)">
     <defs>
      <path id="DejaVuSans-48" d="M 628 4666 
L 1259 4666 
L 1259 2753 
L 3553 2753 
L 3553 4666 
L 4184 4666 
L 4184 0 
L 3553 0 
L 3553 2222 
L 1259 2222 
L 1259 0 
L 628 0 
L 628 4666 
z
" transform="scale(0.015625)"/>
      <path id="DejaVuSans-55" d="M 556 4666 
L 1191 4666 
L 1191 1831 
Q 1191 1081 1462 751 
Q 1734 422 2344 422 
Q 2950 422 3222 751 
Q 3494 1081 3494 1831 
L 3494 4666 
L 4128 4666 
L 4128 1753 
Q 4128 841 3676 375 
Q 3225 -91 2344 -91 
Q 1459 -91 1007 375 
Q 556 841 556 1753 
L 556 4666 
z
" transform="scale(0.015625)"/>
     </defs>
     <use xlink:href="#DejaVuSans-48"/>
     <use xlink:href="#DejaVuSans-55" x="75.195312"/>
     <use xlink:href="#DejaVuSans-42" x="148.388672"/>
     <use xlink:href="#DejaVuSans-37" x="216.992188"/>
     <use xlink:href="#DejaVuSans-35" x="280.615234"/>
    </g>
    <!-- 16-pin IDC -->
    <g transform="translate(366.465684 145.443394) scale(0.09 -0.09)">
     <defs>
      <path id="DejaVuSans-70" d="M 1159 525 
L 1159 -1331 
L 581 -1331 
L 581 3500 
L 1159 3500 
L 1159 2969 
Q 1341 3281 1617 3432 
Q 1894 3584 2278 3584 
Q 2916 3584 3314 3078 
Q 3713 2572 3713 1747 
Q 3713 922 3314 415 
Q 2916 -91 2278 -91 
Q 1894 -91 1617 61 
Q 1341 213 1159 525 
z
M 3116 1747 
Q 3116 2381 2855 2742 
Q 2594 3103 2138 3103 
Q 1681 3103 1420 2742 
Q 1159 2381 1159 1747 
Q 1159 1113 1420 752 
Q 1681 391 2138 391 
Q 2594 391 2855 752 
Q 3116 1113 3116 1747 
z
" transform="scale(0.015625)"/>
      <path id="DejaVuSans-69" d="M 603 3500 
L 1178 3500 
L 1178 0 
L 603 0 
L 603 3500 
z
M 603 4863 
L 1178 4863 
L 1178 4134 
L 603 4134 
L 603 4863 
z
" transform="scale(0.015625)"/>
      <path id="DejaVuSans-6e" d="M 3513 2113 
L 3513 0 
L 2938 0 
L 2938 2094 
Q 2938 2591 2744 2837 
Q 2550 3084 2163 3084 
Q 1697 3084 1428 2787 
Q 1159 2491 1159 1978 
L 1159 0 
L 581 0 
L 581 3500 
L 1159 3500 
L 1159 2956 
Q 1366 3272 1645 3428 
Q 1925 3584 2291 3584 
Q 2894 3584 3203 3211 
Q 3513 2838 3513 2113 
z
" transform="scale(0.015625)"/>
     </defs>
     <use xlink:href="#DejaVuSans-31"/>
     <use xlink:href="#DejaVuSans-36" x="63.623047"/>
     <use xlink:href="#DejaVuSans-2d" x="127.246094"/>
     <use xlink:href="#DejaVuSans-70" x="163.330078"/>
     <use xlink:href="#DejaVuSans-69" x="226.806641"/>
     <use xlink:href="#DejaVuSans-6e" x="254.589844"/>
     <use xlink:href="#DejaVuSans-20" x="317.96875"/>
     <use xlink:href="#DejaVuSans-49" x="349.755859"/>
     <use xlink:href="#DejaVuSans-44" x="379.248047"/>
     <use xlink:href="#DejaVuSans-43" x="456.25"/>
    </g>
   </g>
   <g id="text_59">
    <!-- +3.3V -->
    <g transform="translate(0.460622 142.402331) scale(0.075 -0.075)">
     <use xlink:href="#DejaVuSans-2b"/>
     <use xlink:href="#DejaVuSans-33" x="83.789062"/>
     <use xlink:href="#DejaVuSans-2e" x="147.412109"/>
     <use xlink:href="#DejaVuSans-33" x="179.199219"/>
     <use xlink:href="#DejaVuSans-56" x="242.822266"/>
    </g>
   </g>
  </g>
 </g>
 <defs>
  <clipPath id="p71fff985a1">
   <rect x="0" y="0" width="469.3968" height="288.2496"/>
  </clipPath>
 </defs>
</svg>
