<?xml version="1.0" encoding="utf-8" standalone="no"?>
<!DOCTYPE svg PUBLIC "-//W3C//DTD SVG 1.1//EN"
  "http://www.w3.org/Graphics/SVG/1.1/DTD/svg11.dtd">
<svg xmlns:xlink="http://www.w3.org/1999/xlink" width="423.7068pt" height="188.98pt" viewBox="0 0 423.7068 188.98" xmlns="http://www.w3.org/2000/svg" version="1.1">
 <metadata>
  <rdf:RDF xmlns:dc="http://purl.org/dc/elements/1.1/" xmlns:cc="http://creativecommons.org/ns#" xmlns:rdf="http://www.w3.org/1999/02/22-rdf-syntax-ns#">
   <cc:Work>
    <dc:type rdf:resource="http://purl.org/dc/dcmitype/StillImage"/>
    <dc:date>2026-04-05T15:43:36.007922</dc:date>
    <dc:format>image/svg+xml</dc:format>
    <dc:creator>
     <cc:Agent>
      <dc:title>Matplotlib v3.9.4, https://matplotlib.org/</dc:title>
     </cc:Agent>
    </dc:creator>
   </cc:Work>
  </rdf:RDF>
 </metadata>
 <defs>
  <style type="text/css">*{stroke-linejoin: round; stroke-linecap: butt}</style>
 </defs>
 <g id="figure_1">
  <g id="patch_1">
   <path d="M 0 188.98 
L 423.7068 188.98 
L 423.7068 0 
L 0 0 
L 0 188.98 
z
" style="fill: none"/>
  </g>
  <g id="axes_1">
   <g id="patch_2">
    <path d="M 34.1847 47.212 
C 35.444945 47.212 36.653744 46.711299 37.544871 45.820171 
C 38.435999 44.929044 38.9367 43.720245 38.9367 42.46 
C 38.9367 41.199755 38.435999 39.990956 37.544871 39.099829 
C 36.653744 38.208701 35.444945 37.708 34.1847 37.708 
C 32.924455 37.708 31.715656 38.208701 30.824529 39.099829 
C 29.933401 39.990956 29.4327 41.199755 29.4327 42.46 
C 29.4327 43.720245 29.933401 44.929044 30.824529 45.820171 
C 31.715656 46.711299 32.924455 47.212 34.1847 47.212 
L 34.1847 47.212 
z
" clip-path="url(#pe901ad9adc)" style="fill: none; stroke: #000000; stroke-width: 2; stroke-linejoin: miter"/>
   </g>
   <g id="patch_3">
    <path d="M 34.1847 77.308 
C 35.444945 77.308 36.653744 76.807299 37.544871 75.916171 
C 38.435999 75.025044 38.9367 73.816245 38.9367 72.556 
C 38.9367 71.295755 38.435999 70.086956 37.544871 69.195829 
C 36.653744 68.304701 35.444945 67.804 34.1847 67.804 
C 32.924455 67.804 31.715656 68.304701 30.824529 69.195829 
C 29.933401 70.086956 29.4327 71.295755 29.4327 72.556 
C 29.4327 73.816245 29.933401 75.025044 30.824529 75.916171 
C 31.715656 76.807299 32.924455 77.308 34.1847 77.308 
L 34.1847 77.308 
z
" clip-path="url(#pe901ad9adc)" style="fill: none; stroke: #000000; stroke-width: 2; stroke-linejoin: miter"/>
   </g>
   <g id="patch_4">
    <path d="M 172.7847 47.212 
C 174.044945 47.212 175.253744 46.711299 176.144871 45.820171 
C 177.035999 44.929044 177.5367 43.720245 177.5367 42.46 
C 177.5367 41.199755 177.035999 39.990956 176.144871 39.099829 
C 175.253744 38.208701 174.044945 37.708 172.7847 37.708 
C 171.524455 37.708 170.315656 38.208701 169.424529 39.099829 
C 168.533401 39.990956 168.0327 41.199755 168.0327 42.46 
C 168.0327 43.720245 168.533401 44.929044 169.424529 45.820171 
C 170.315656 46.711299 171.524455 47.212 172.7847 47.212 
L 172.7847 47.212 
z
" clip-path="url(#pe901ad9adc)" style="fill: none; stroke: #000000; stroke-width: 2; stroke-linejoin: miter"/>
   </g>
   <g id="patch_5">
    <path d="M 172.7847 77.308 
C 174.044945 77.308 175.253744 76.807299 176.144871 75.916171 
C 177.035999 75.025044 177.5367 73.816245 177.5367 72.556 
C 177.5367 71.295755 177.035999 70.086956 176.144871 69.195829 
C 175.253744 68.304701 174.044945 67.804 172.7847 67.804 
C 171.524455 67.804 170.315656 68.304701 169.424529 69.195829 
C 168.533401 70.086956 168.0327 71.295755 168.0327 72.556 
C 168.0327 73.816245 168.533401 75.025044 169.424529 75.916171 
C 170.315656 76.807299 171.524455 77.308 172.7847 77.308 
L 172.7847 77.308 
z
" clip-path="url(#pe901ad9adc)" style="fill: none; stroke: #000000; stroke-width: 2; stroke-linejoin: miter"/>
   </g>
   <g id="patch_6">
    <path d="M 311.3847 47.212 
C 312.644945 47.212 313.853744 46.711299 314.744871 45.820171 
C 315.635999 44.929044 316.1367 43.720245 316.1367 42.46 
C 316.1367 41.199755 315.635999 39.990956 314.744871 39.099829 
C 313.853744 38.208701 312.644945 37.708 311.3847 37.708 
C 310.124455 37.708 308.915656 38.208701 308.024529 39.099829 
C 307.133401 39.990956 306.6327 41.199755 306.6327 42.46 
C 306.6327 43.720245 307.133401 44.929044 308.024529 45.820171 
C 308.915656 46.711299 310.124455 47.212 311.3847 47.212 
L 311.3847 47.212 
z
" clip-path="url(#pe901ad9adc)" style="fill: none; stroke: #000000; stroke-width: 2; stroke-linejoin: miter"/>
   </g>
   <g id="patch_7">
    <path d="M 311.3847 77.308 
C 312.644945 77.308 313.853744 76.807299 314.744871 75.916171 
C 315.635999 75.025044 316.1367 73.816245 316.1367 72.556 
C 316.1367 71.295755 315.635999 70.086956 314.744871 69.195829 
C 313.853744 68.304701 312.644945 67.804 311.3847 67.804 
C 310.124455 67.804 308.915656 68.304701 308.024529 69.195829 
C 307.133401 70.086956 306.6327 71.295755 306.6327 72.556 
C 306.6327 73.816245 307.133401 75.025044 308.024529 75.916171 
C 308.915656 76.807299 310.124455 77.308 311.3847 77.308 
L 311.3847 77.308 
z
" clip-path="url(#pe901ad9adc)" style="fill: none; stroke: #000000; stroke-width: 2; stroke-linejoin: miter"/>
   </g>
   <g id="line2d_1">
    <path d="M 34.1847 27.808 
L 34.1847 17.908 
L 34.1847 8.008 
" clip-path="url(#pe901ad9adc)" style="fill: none; stroke: #000000; stroke-width: 2; stroke-linecap: round"/>
   </g>
   <g id="line2d_2">
    <path d="M 34.1847 27.808 
L 34.1847 37.708 
M 46.0647 42.46 
L 46.0647 72.556 
M 46.0647 57.508 
L 53.9847 57.508 
M 34.1847 77.308 
L 34.1847 87.208 
" clip-path="url(#pe901ad9adc)" style="fill: none; stroke: #000000; stroke-width: 2; stroke-linecap: round"/>
   </g>
   <g id="line2d_3">
    <path d="M 34.1847 87.208 
L 63.8847 87.208 
L 93.5847 87.208 
" clip-path="url(#pe901ad9adc)" style="fill: none; stroke: #000000; stroke-width: 2; stroke-linecap: round"/>
   </g>
   <g id="line2d_4">
    <path d="M 34.1847 87.208 
L 34.1847 103.048 
L 44.0847 106.348 
L 24.2847 112.948 
L 44.0847 119.548 
L 24.2847 126.148 
L 44.0847 132.748 
L 24.2847 139.348 
L 34.1847 142.648 
L 34.1847 158.488 
" clip-path="url(#pe901ad9adc)" style="fill: none; stroke: #000000; stroke-width: 2; stroke-linecap: round"/>
   </g>
   <g id="line2d_5">
    <path d="M 34.1847 158.488 
L 34.1847 174.328 
L 24.2847 174.328 
L 44.0847 174.328 
M 27.2547 179.08 
L 41.1147 179.08 
M 32.2047 183.832 
L 36.1647 183.832 
" clip-path="url(#pe901ad9adc)" style="fill: none; stroke: #000000; stroke-width: 2; stroke-linecap: round"/>
   </g>
   <g id="line2d_6">
    <path d="M 172.7847 27.808 
L 172.7847 17.908 
L 172.7847 8.008 
" clip-path="url(#pe901ad9adc)" style="fill: none; stroke: #000000; stroke-width: 2; stroke-linecap: round"/>
   </g>
   <g id="line2d_7">
    <path d="M 172.7847 27.808 
L 172.7847 37.708 
M 184.6647 42.46 
L 184.6647 72.556 
M 184.6647 57.508 
L 192.5847 57.508 
M 172.7847 77.308 
L 172.7847 87.208 
" clip-path="url(#pe901ad9adc)" style="fill: none; stroke: #000000; stroke-width: 2; stroke-linecap: round"/>
   </g>
   <g id="line2d_8">
    <path d="M 172.7847 87.208 
L 202.4847 87.208 
L 232.1847 87.208 
" clip-path="url(#pe901ad9adc)" style="fill: none; stroke: #000000; stroke-width: 2; stroke-linecap: round"/>
   </g>
   <g id="line2d_9">
    <path d="M 172.7847 87.208 
L 172.7847 103.048 
L 182.6847 106.348 
L 162.8847 112.948 
L 182.6847 119.548 
L 162.8847 126.148 
L 182.6847 132.748 
L 162.8847 139.348 
L 172.7847 142.648 
L 172.7847 158.488 
" clip-path="url(#pe901ad9adc)" style="fill: none; stroke: #000000; stroke-width: 2; stroke-linecap: round"/>
   </g>
   <g id="line2d_10">
    <path d="M 172.7847 158.488 
L 172.7847 174.328 
L 162.8847 174.328 
L 182.6847 174.328 
M 165.8547 179.08 
L 179.7147 179.08 
M 170.8047 183.832 
L 174.7647 183.832 
" clip-path="url(#pe901ad9adc)" style="fill: none; stroke: #000000; stroke-width: 2; stroke-linecap: round"/>
   </g>
   <g id="line2d_11">
    <path d="M 311.3847 27.808 
L 311.3847 17.908 
L 311.3847 8.008 
" clip-path="url(#pe901ad9adc)" style="fill: none; stroke: #000000; stroke-width: 2; stroke-linecap: round"/>
   </g>
   <g id="line2d_12">
    <path d="M 311.3847 27.808 
L 311.3847 37.708 
M 323.2647 42.46 
L 323.2647 72.556 
M 323.2647 57.508 
L 331.1847 57.508 
M 311.3847 77.308 
L 311.3847 87.208 
" clip-path="url(#pe901ad9adc)" style="fill: none; stroke: #000000; stroke-width: 2; stroke-linecap: round"/>
   </g>
   <g id="line2d_13">
    <path d="M 311.3847 87.208 
L 341.0847 87.208 
L 370.7847 87.208 
" clip-path="url(#pe901ad9adc)" style="fill: none; stroke: #000000; stroke-width: 2; stroke-linecap: round"/>
   </g>
   <g id="line2d_14">
    <path d="M 311.3847 87.208 
L 311.3847 103.048 
L 321.2847 106.348 
L 301.4847 112.948 
L 321.2847 119.548 
L 301.4847 126.148 
L 321.2847 132.748 
L 301.4847 139.348 
L 311.3847 142.648 
L 311.3847 158.488 
" clip-path="url(#pe901ad9adc)" style="fill: none; stroke: #000000; stroke-width: 2; stroke-linecap: round"/>
   </g>
   <g id="line2d_15">
    <path d="M 311.3847 158.488 
L 311.3847 174.328 
L 301.4847 174.328 
L 321.2847 174.328 
M 304.4547 179.08 
L 318.3147 179.08 
M 309.4047 183.832 
L 313.3647 183.832 
" clip-path="url(#pe901ad9adc)" style="fill: none; stroke: #000000; stroke-width: 2; stroke-linecap: round"/>
   </g>
   <g id="text_1">
    <!-- +3.3V -->
    <g transform="translate(3.769778 20.253469) scale(0.085 -0.085)">
     <defs>
      <path id="DejaVuSans-2b" d="M 2944 4013 
L 2944 2272 
L 4684 2272 
L 4684 1741 
L 2944 1741 
L 2944 0 
L 2419 0 
L 2419 1741 
L 678 1741 
L 678 2272 
L 2419 2272 
L 2419 4013 
L 2944 4013 
z
" transform="scale(0.015625)"/>
      <path id="DejaVuSans-33" d="M 2597 2516 
Q 3050 2419 3304 2112 
Q 3559 1806 3559 1356 
Q 3559 666 3084 287 
Q 2609 -91 1734 -91 
Q 1441 -91 1130 -33 
Q 819 25 488 141 
L 488 750 
Q 750 597 1062 519 
Q 1375 441 1716 441 
Q 2309 441 2620 675 
Q 2931 909 2931 1356 
Q 2931 1769 2642 2001 
Q 2353 2234 1838 2234 
L 1294 2234 
L 1294 2753 
L 1863 2753 
Q 2328 2753 2575 2939 
Q 2822 3125 2822 3475 
Q 2822 3834 2567 4026 
Q 2313 4219 1838 4219 
Q 1578 4219 1281 4162 
Q 984 4106 628 3988 
L 628 4550 
Q 988 4650 1302 4700 
Q 1616 4750 1894 4750 
Q 2613 4750 3031 4423 
Q 3450 4097 3450 3541 
Q 3450 3153 3228 2886 
Q 3006 2619 2597 2516 
z
" transform="scale(0.015625)"/>
      <path id="DejaVuSans-2e" d="M 684 794 
L 1344 794 
L 1344 0 
L 684 0 
L 684 794 
z
" transform="scale(0.015625)"/>
      <path id="DejaVuSans-56" d="M 1831 0 
L 50 4666 
L 709 4666 
L 2188 738 
L 3669 4666 
L 4325 4666 
L 2547 0 
L 1831 0 
z
" transform="scale(0.015625)"/>
     </defs>
     <use xlink:href="#DejaVuSans-2b"/>
     <use xlink:href="#DejaVuSans-33" x="83.789062"/>
     <use xlink:href="#DejaVuSans-2e" x="147.412109"/>
     <use xlink:href="#DejaVuSans-33" x="179.199219"/>
     <use xlink:href="#DejaVuSans-56" x="242.822266"/>
    </g>
   </g>
   <g id="text_2">
    <!-- Next scene -->
    <g transform="translate(17.981747 22.080266) scale(0.085 -0.085)">
     <defs>
      <path id="DejaVuSans-4e" d="M 628 4666 
L 1478 4666 
L 3547 763 
L 3547 4666 
L 4159 4666 
L 4159 0 
L 3309 0 
L 1241 3903 
L 1241 0 
L 628 0 
L 628 4666 
z
" transform="scale(0.015625)"/>
      <path id="DejaVuSans-65" d="M 3597 1894 
L 3597 1613 
L 953 1613 
Q 991 1019 1311 708 
Q 1631 397 2203 397 
Q 2534 397 2845 478 
Q 3156 559 3463 722 
L 3463 178 
Q 3153 47 2828 -22 
Q 2503 -91 2169 -91 
Q 1331 -91 842 396 
Q 353 884 353 1716 
Q 353 2575 817 3079 
Q 1281 3584 2069 3584 
Q 2775 3584 3186 3129 
Q 3597 2675 3597 1894 
z
M 3022 2063 
Q 3016 2534 2758 2815 
Q 2500 3097 2075 3097 
Q 1594 3097 1305 2825 
Q 1016 2553 972 2059 
L 3022 2063 
z
" transform="scale(0.015625)"/>
      <path id="DejaVuSans-78" d="M 3513 3500 
L 2247 1797 
L 3578 0 
L 2900 0 
L 1881 1375 
L 863 0 
L 184 0 
L 1544 1831 
L 300 3500 
L 978 3500 
L 1906 2253 
L 2834 3500 
L 3513 3500 
z
" transform="scale(0.015625)"/>
      <path id="DejaVuSans-74" d="M 1172 4494 
L 1172 3500 
L 2356 3500 
L 2356 3053 
L 1172 3053 
L 1172 1153 
Q 1172 725 1289 603 
Q 1406 481 1766 481 
L 2356 481 
L 2356 0 
L 1766 0 
Q 1100 0 847 248 
Q 594 497 594 1153 
L 594 3053 
L 172 3053 
L 172 3500 
L 594 3500 
L 594 4494 
L 1172 4494 
z
" transform="scale(0.015625)"/>
      <path id="DejaVuSans-20" transform="scale(0.015625)"/>
      <path id="DejaVuSans-73" d="M 2834 3397 
L 2834 2853 
Q 2591 2978 2328 3040 
Q 2066 3103 1784 3103 
Q 1356 3103 1142 2972 
Q 928 2841 928 2578 
Q 928 2378 1081 2264 
Q 1234 2150 1697 2047 
L 1894 2003 
Q 2506 1872 2764 1633 
Q 3022 1394 3022 966 
Q 3022 478 2636 193 
Q 2250 -91 1575 -91 
Q 1294 -91 989 -36 
Q 684 19 347 128 
L 347 722 
Q 666 556 975 473 
Q 1284 391 1588 391 
Q 1994 391 2212 530 
Q 2431 669 2431 922 
Q 2431 1156 2273 1281 
Q 2116 1406 1581 1522 
L 1381 1569 
Q 847 1681 609 1914 
Q 372 2147 372 2553 
Q 372 3047 722 3315 
Q 1072 3584 1716 3584 
Q 2034 3584 2315 3537 
Q 2597 3491 2834 3397 
z
" transform="scale(0.015625)"/>
      <path id="DejaVuSans-63" d="M 3122 3366 
L 3122 2828 
Q 2878 2963 2633 3030 
Q 2388 3097 2138 3097 
Q 1578 3097 1268 2742 
Q 959 2388 959 1747 
Q 959 1106 1268 751 
Q 1578 397 2138 397 
Q 2388 397 2633 464 
Q 2878 531 3122 666 
L 3122 134 
Q 2881 22 2623 -34 
Q 2366 -91 2075 -91 
Q 1284 -91 818 406 
Q 353 903 353 1747 
Q 353 2603 823 3093 
Q 1294 3584 2113 3584 
Q 2378 3584 2631 3529 
Q 2884 3475 3122 3366 
z
" transform="scale(0.015625)"/>
      <path id="DejaVuSans-6e" d="M 3513 2113 
L 3513 0 
L 2938 0 
L 2938 2094 
Q 2938 2591 2744 2837 
Q 2550 3084 2163 3084 
Q 1697 3084 1428 2787 
Q 1159 2491 1159 1978 
L 1159 0 
L 581 0 
L 581 3500 
L 1159 3500 
L 1159 2956 
Q 1366 3272 1645 3428 
Q 1925 3584 2291 3584 
Q 2894 3584 3203 3211 
Q 3513 2838 3513 2113 
z
" transform="scale(0.015625)"/>
     </defs>
     <use xlink:href="#DejaVuSans-4e"/>
     <use xlink:href="#DejaVuSans-65" x="74.804688"/>
     <use xlink:href="#DejaVuSans-78" x="134.578125"/>
     <use xlink:href="#DejaVuSans-74" x="193.757812"/>
     <use xlink:href="#DejaVuSans-20" x="232.966797"/>
     <use xlink:href="#DejaVuSans-73" x="264.753906"/>
     <use xlink:href="#DejaVuSans-63" x="316.853516"/>
     <use xlink:href="#DejaVuSans-65" x="371.833984"/>
     <use xlink:href="#DejaVuSans-6e" x="433.357422"/>
     <use xlink:href="#DejaVuSans-65" x="496.736328"/>
    </g>
   </g>
   <g id="text_3">
    <!-- → GPIO 33 -->
    <g transform="translate(97.5447 89.553469) scale(0.085 -0.085)">
     <defs>
      <path id="DejaVuSans-2192" d="M 5050 2147 
L 5050 1866 
L 3822 638 
L 3447 1013 
L 4175 1741 
L 366 1741 
L 366 2272 
L 4175 2272 
L 3447 3000 
L 3822 3375 
L 5050 2147 
z
" transform="scale(0.015625)"/>
      <path id="DejaVuSans-47" d="M 3809 666 
L 3809 1919 
L 2778 1919 
L 2778 2438 
L 4434 2438 
L 4434 434 
Q 4069 175 3628 42 
Q 3188 -91 2688 -91 
Q 1594 -91 976 548 
Q 359 1188 359 2328 
Q 359 3472 976 4111 
Q 1594 4750 2688 4750 
Q 3144 4750 3555 4637 
Q 3966 4525 4313 4306 
L 4313 3634 
Q 3963 3931 3569 4081 
Q 3175 4231 2741 4231 
Q 1884 4231 1454 3753 
Q 1025 3275 1025 2328 
Q 1025 1384 1454 906 
Q 1884 428 2741 428 
Q 3075 428 3337 486 
Q 3600 544 3809 666 
z
" transform="scale(0.015625)"/>
      <path id="DejaVuSans-50" d="M 1259 4147 
L 1259 2394 
L 2053 2394 
Q 2494 2394 2734 2622 
Q 2975 2850 2975 3272 
Q 2975 3691 2734 3919 
Q 2494 4147 2053 4147 
L 1259 4147 
z
M 628 4666 
L 2053 4666 
Q 2838 4666 3239 4311 
Q 3641 3956 3641 3272 
Q 3641 2581 3239 2228 
Q 2838 1875 2053 1875 
L 1259 1875 
L 1259 0 
L 628 0 
L 628 4666 
z
" transform="scale(0.015625)"/>
      <path id="DejaVuSans-49" d="M 628 4666 
L 1259 4666 
L 1259 0 
L 628 0 
L 628 4666 
z
" transform="scale(0.015625)"/>
      <path id="DejaVuSans-4f" d="M 2522 4238 
Q 1834 4238 1429 3725 
Q 1025 3213 1025 2328 
Q 1025 1447 1429 934 
Q 1834 422 2522 422 
Q 3209 422 3611 934 
Q 4013 1447 4013 2328 
Q 4013 3213 3611 3725 
Q 3209 4238 2522 4238 
z
M 2522 4750 
Q 3503 4750 4090 4092 
Q 4678 3434 4678 2328 
Q 4678 1225 4090 567 
Q 3503 -91 2522 -91 
Q 1538 -91 948 565 
Q 359 1222 359 2328 
Q 359 3434 948 4092 
Q 1538 4750 2522 4750 
z
" transform="scale(0.015625)"/>
     </defs>
     <use xlink:href="#DejaVuSans-2192"/>
     <use xlink:href="#DejaVuSans-20" x="83.789062"/>
     <use xlink:href="#DejaVuSans-47" x="115.576172"/>
     <use xlink:href="#DejaVuSans-50" x="193.066406"/>
     <use xlink:href="#DejaVuSans-49" x="253.369141"/>
     <use xlink:href="#DejaVuSans-4f" x="282.861328"/>
     <use xlink:href="#DejaVuSans-20" x="361.572266"/>
     <use xlink:href="#DejaVuSans-33" x="393.359375"/>
     <use xlink:href="#DejaVuSans-33" x="456.982422"/>
    </g>
   </g>
   <g id="text_4">
    <!-- 10 kΩ -->
    <g transform="translate(21.716927 81.480266) scale(0.085 -0.085)">
     <defs>
      <path id="DejaVuSans-31" d="M 794 531 
L 1825 531 
L 1825 4091 
L 703 3866 
L 703 4441 
L 1819 4666 
L 2450 4666 
L 2450 531 
L 3481 531 
L 3481 0 
L 794 0 
L 794 531 
z
" transform="scale(0.015625)"/>
      <path id="DejaVuSans-30" d="M 2034 4250 
Q 1547 4250 1301 3770 
Q 1056 3291 1056 2328 
Q 1056 1369 1301 889 
Q 1547 409 2034 409 
Q 2525 409 2770 889 
Q 3016 1369 3016 2328 
Q 3016 3291 2770 3770 
Q 2525 4250 2034 4250 
z
M 2034 4750 
Q 2819 4750 3233 4129 
Q 3647 3509 3647 2328 
Q 3647 1150 3233 529 
Q 2819 -91 2034 -91 
Q 1250 -91 836 529 
Q 422 1150 422 2328 
Q 422 3509 836 4129 
Q 1250 4750 2034 4750 
z
" transform="scale(0.015625)"/>
      <path id="DejaVuSans-6b" d="M 581 4863 
L 1159 4863 
L 1159 1991 
L 2875 3500 
L 3609 3500 
L 1753 1863 
L 3688 0 
L 2938 0 
L 1159 1709 
L 1159 0 
L 581 0 
L 581 4863 
z
" transform="scale(0.015625)"/>
      <path id="DejaVuSans-3a9" d="M 4647 556 
L 4647 0 
L 2772 0 
L 2772 556 
Q 3325 859 3634 1378 
Q 3944 1897 3944 2528 
Q 3944 3278 3531 3731 
Q 3119 4184 2444 4184 
Q 1769 4184 1355 3729 
Q 941 3275 941 2528 
Q 941 1897 1250 1378 
Q 1563 859 2119 556 
L 2119 0 
L 244 0 
L 244 556 
L 1241 556 
Q 747 991 519 1456 
Q 294 1922 294 2497 
Q 294 3491 894 4106 
Q 1491 4722 2444 4722 
Q 3391 4722 3994 4106 
Q 4594 3494 4594 2528 
Q 4594 1922 4372 1459 
Q 4150 997 3647 556 
L 4647 556 
z
" transform="scale(0.015625)"/>
     </defs>
     <use xlink:href="#DejaVuSans-31"/>
     <use xlink:href="#DejaVuSans-30" x="63.623047"/>
     <use xlink:href="#DejaVuSans-20" x="127.246094"/>
     <use xlink:href="#DejaVuSans-6b" x="159.033203"/>
     <use xlink:href="#DejaVuSans-3a9" x="216.943359"/>
    </g>
   </g>
   <g id="text_5">
    <!-- +3.3V -->
    <g transform="translate(142.369778 20.253469) scale(0.085 -0.085)">
     <use xlink:href="#DejaVuSans-2b"/>
     <use xlink:href="#DejaVuSans-33" x="83.789062"/>
     <use xlink:href="#DejaVuSans-2e" x="147.412109"/>
     <use xlink:href="#DejaVuSans-33" x="179.199219"/>
     <use xlink:href="#DejaVuSans-56" x="242.822266"/>
    </g>
   </g>
   <g id="text_6">
    <!-- Brightness -->
    <g transform="translate(157.670809 22.080266) scale(0.085 -0.085)">
     <defs>
      <path id="DejaVuSans-42" d="M 1259 2228 
L 1259 519 
L 2272 519 
Q 2781 519 3026 730 
Q 3272 941 3272 1375 
Q 3272 1813 3026 2020 
Q 2781 2228 2272 2228 
L 1259 2228 
z
M 1259 4147 
L 1259 2741 
L 2194 2741 
Q 2656 2741 2882 2914 
Q 3109 3088 3109 3444 
Q 3109 3797 2882 3972 
Q 2656 4147 2194 4147 
L 1259 4147 
z
M 628 4666 
L 2241 4666 
Q 2963 4666 3353 4366 
Q 3744 4066 3744 3513 
Q 3744 3084 3544 2831 
Q 3344 2578 2956 2516 
Q 3422 2416 3680 2098 
Q 3938 1781 3938 1306 
Q 3938 681 3513 340 
Q 3088 0 2303 0 
L 628 0 
L 628 4666 
z
" transform="scale(0.015625)"/>
      <path id="DejaVuSans-72" d="M 2631 2963 
Q 2534 3019 2420 3045 
Q 2306 3072 2169 3072 
Q 1681 3072 1420 2755 
Q 1159 2438 1159 1844 
L 1159 0 
L 581 0 
L 581 3500 
L 1159 3500 
L 1159 2956 
Q 1341 3275 1631 3429 
Q 1922 3584 2338 3584 
Q 2397 3584 2469 3576 
Q 2541 3569 2628 3553 
L 2631 2963 
z
" transform="scale(0.015625)"/>
      <path id="DejaVuSans-69" d="M 603 3500 
L 1178 3500 
L 1178 0 
L 603 0 
L 603 3500 
z
M 603 4863 
L 1178 4863 
L 1178 4134 
L 603 4134 
L 603 4863 
z
" transform="scale(0.015625)"/>
      <path id="DejaVuSans-67" d="M 2906 1791 
Q 2906 2416 2648 2759 
Q 2391 3103 1925 3103 
Q 1463 3103 1205 2759 
Q 947 2416 947 1791 
Q 947 1169 1205 825 
Q 1463 481 1925 481 
Q 2391 481 2648 825 
Q 2906 1169 2906 1791 
z
M 3481 434 
Q 3481 -459 3084 -895 
Q 2688 -1331 1869 -1331 
Q 1566 -1331 1297 -1286 
Q 1028 -1241 775 -1147 
L 775 -588 
Q 1028 -725 1275 -790 
Q 1522 -856 1778 -856 
Q 2344 -856 2625 -561 
Q 2906 -266 2906 331 
L 2906 616 
Q 2728 306 2450 153 
Q 2172 0 1784 0 
Q 1141 0 747 490 
Q 353 981 353 1791 
Q 353 2603 747 3093 
Q 1141 3584 1784 3584 
Q 2172 3584 2450 3431 
Q 2728 3278 2906 2969 
L 2906 3500 
L 3481 3500 
L 3481 434 
z
" transform="scale(0.015625)"/>
      <path id="DejaVuSans-68" d="M 3513 2113 
L 3513 0 
L 2938 0 
L 2938 2094 
Q 2938 2591 2744 2837 
Q 2550 3084 2163 3084 
Q 1697 3084 1428 2787 
Q 1159 2491 1159 1978 
L 1159 0 
L 581 0 
L 581 4863 
L 1159 4863 
L 1159 2956 
Q 1366 3272 1645 3428 
Q 1925 3584 2291 3584 
Q 2894 3584 3203 3211 
Q 3513 2838 3513 2113 
z
" transform="scale(0.015625)"/>
     </defs>
     <use xlink:href="#DejaVuSans-42"/>
     <use xlink:href="#DejaVuSans-72" x="68.603516"/>
     <use xlink:href="#DejaVuSans-69" x="109.716797"/>
     <use xlink:href="#DejaVuSans-67" x="137.5"/>
     <use xlink:href="#DejaVuSans-68" x="200.976562"/>
     <use xlink:href="#DejaVuSans-74" x="264.355469"/>
     <use xlink:href="#DejaVuSans-6e" x="303.564453"/>
     <use xlink:href="#DejaVuSans-65" x="366.943359"/>
     <use xlink:href="#DejaVuSans-73" x="428.466797"/>
     <use xlink:href="#DejaVuSans-73" x="480.566406"/>
    </g>
   </g>
   <g id="text_7">
    <!-- → GPIO 34 -->
    <g transform="translate(236.1447 89.553469) scale(0.085 -0.085)">
     <defs>
      <path id="DejaVuSans-34" d="M 2419 4116 
L 825 1625 
L 2419 1625 
L 2419 4116 
z
M 2253 4666 
L 3047 4666 
L 3047 1625 
L 3713 1625 
L 3713 1100 
L 3047 1100 
L 3047 0 
L 2419 0 
L 2419 1100 
L 313 1100 
L 313 1709 
L 2253 4666 
z
" transform="scale(0.015625)"/>
     </defs>
     <use xlink:href="#DejaVuSans-2192"/>
     <use xlink:href="#DejaVuSans-20" x="83.789062"/>
     <use xlink:href="#DejaVuSans-47" x="115.576172"/>
     <use xlink:href="#DejaVuSans-50" x="193.066406"/>
     <use xlink:href="#DejaVuSans-49" x="253.369141"/>
     <use xlink:href="#DejaVuSans-4f" x="282.861328"/>
     <use xlink:href="#DejaVuSans-20" x="361.572266"/>
     <use xlink:href="#DejaVuSans-33" x="393.359375"/>
     <use xlink:href="#DejaVuSans-34" x="456.982422"/>
    </g>
   </g>
   <g id="text_8">
    <!-- 10 kΩ -->
    <g transform="translate(160.316927 81.480266) scale(0.085 -0.085)">
     <use xlink:href="#DejaVuSans-31"/>
     <use xlink:href="#DejaVuSans-30" x="63.623047"/>
     <use xlink:href="#DejaVuSans-20" x="127.246094"/>
     <use xlink:href="#DejaVuSans-6b" x="159.033203"/>
     <use xlink:href="#DejaVuSans-3a9" x="216.943359"/>
    </g>
   </g>
   <g id="text_9">
    <!-- +3.3V -->
    <g transform="translate(280.969778 20.253469) scale(0.085 -0.085)">
     <use xlink:href="#DejaVuSans-2b"/>
     <use xlink:href="#DejaVuSans-33" x="83.789062"/>
     <use xlink:href="#DejaVuSans-2e" x="147.412109"/>
     <use xlink:href="#DejaVuSans-33" x="179.199219"/>
     <use xlink:href="#DejaVuSans-56" x="242.822266"/>
    </g>
   </g>
   <g id="text_10">
    <!-- WiFi setup -->
    <g transform="translate(297.06702 13.853859) scale(0.085 -0.085)">
     <defs>
      <path id="DejaVuSans-57" d="M 213 4666 
L 850 4666 
L 1831 722 
L 2809 4666 
L 3519 4666 
L 4500 722 
L 5478 4666 
L 6119 4666 
L 4947 0 
L 4153 0 
L 3169 4050 
L 2175 0 
L 1381 0 
L 213 4666 
z
" transform="scale(0.015625)"/>
      <path id="DejaVuSans-46" d="M 628 4666 
L 3309 4666 
L 3309 4134 
L 1259 4134 
L 1259 2759 
L 3109 2759 
L 3109 2228 
L 1259 2228 
L 1259 0 
L 628 0 
L 628 4666 
z
" transform="scale(0.015625)"/>
      <path id="DejaVuSans-75" d="M 544 1381 
L 544 3500 
L 1119 3500 
L 1119 1403 
Q 1119 906 1312 657 
Q 1506 409 1894 409 
Q 2359 409 2629 706 
Q 2900 1003 2900 1516 
L 2900 3500 
L 3475 3500 
L 3475 0 
L 2900 0 
L 2900 538 
Q 2691 219 2414 64 
Q 2138 -91 1772 -91 
Q 1169 -91 856 284 
Q 544 659 544 1381 
z
M 1991 3584 
L 1991 3584 
z
" transform="scale(0.015625)"/>
      <path id="DejaVuSans-70" d="M 1159 525 
L 1159 -1331 
L 581 -1331 
L 581 3500 
L 1159 3500 
L 1159 2969 
Q 1341 3281 1617 3432 
Q 1894 3584 2278 3584 
Q 2916 3584 3314 3078 
Q 3713 2572 3713 1747 
Q 3713 922 3314 415 
Q 2916 -91 2278 -91 
Q 1894 -91 1617 61 
Q 1341 213 1159 525 
z
M 3116 1747 
Q 3116 2381 2855 2742 
Q 2594 3103 2138 3103 
Q 1681 3103 1420 2742 
Q 1159 2381 1159 1747 
Q 1159 1113 1420 752 
Q 1681 391 2138 391 
Q 2594 391 2855 752 
Q 3116 1113 3116 1747 
z
" transform="scale(0.015625)"/>
     </defs>
     <use xlink:href="#DejaVuSans-57"/>
     <use xlink:href="#DejaVuSans-69" x="96.626953"/>
     <use xlink:href="#DejaVuSans-46" x="124.410156"/>
     <use xlink:href="#DejaVuSans-69" x="174.679688"/>
     <use xlink:href="#DejaVuSans-20" x="202.462891"/>
     <use xlink:href="#DejaVuSans-73" x="234.25"/>
     <use xlink:href="#DejaVuSans-65" x="286.349609"/>
     <use xlink:href="#DejaVuSans-74" x="347.873047"/>
     <use xlink:href="#DejaVuSans-75" x="387.082031"/>
     <use xlink:href="#DejaVuSans-70" x="450.460938"/>
    </g>
    <!-- (hold 5s) -->
    <g transform="translate(300.150927 22.080266) scale(0.085 -0.085)">
     <defs>
      <path id="DejaVuSans-28" d="M 1984 4856 
Q 1566 4138 1362 3434 
Q 1159 2731 1159 2009 
Q 1159 1288 1364 580 
Q 1569 -128 1984 -844 
L 1484 -844 
Q 1016 -109 783 600 
Q 550 1309 550 2009 
Q 550 2706 781 3412 
Q 1013 4119 1484 4856 
L 1984 4856 
z
" transform="scale(0.015625)"/>
      <path id="DejaVuSans-6f" d="M 1959 3097 
Q 1497 3097 1228 2736 
Q 959 2375 959 1747 
Q 959 1119 1226 758 
Q 1494 397 1959 397 
Q 2419 397 2687 759 
Q 2956 1122 2956 1747 
Q 2956 2369 2687 2733 
Q 2419 3097 1959 3097 
z
M 1959 3584 
Q 2709 3584 3137 3096 
Q 3566 2609 3566 1747 
Q 3566 888 3137 398 
Q 2709 -91 1959 -91 
Q 1206 -91 779 398 
Q 353 888 353 1747 
Q 353 2609 779 3096 
Q 1206 3584 1959 3584 
z
" transform="scale(0.015625)"/>
      <path id="DejaVuSans-6c" d="M 603 4863 
L 1178 4863 
L 1178 0 
L 603 0 
L 603 4863 
z
" transform="scale(0.015625)"/>
      <path id="DejaVuSans-64" d="M 2906 2969 
L 2906 4863 
L 3481 4863 
L 3481 0 
L 2906 0 
L 2906 525 
Q 2725 213 2448 61 
Q 2172 -91 1784 -91 
Q 1150 -91 751 415 
Q 353 922 353 1747 
Q 353 2572 751 3078 
Q 1150 3584 1784 3584 
Q 2172 3584 2448 3432 
Q 2725 3281 2906 2969 
z
M 947 1747 
Q 947 1113 1208 752 
Q 1469 391 1925 391 
Q 2381 391 2643 752 
Q 2906 1113 2906 1747 
Q 2906 2381 2643 2742 
Q 2381 3103 1925 3103 
Q 1469 3103 1208 2742 
Q 947 2381 947 1747 
z
" transform="scale(0.015625)"/>
      <path id="DejaVuSans-35" d="M 691 4666 
L 3169 4666 
L 3169 4134 
L 1269 4134 
L 1269 2991 
Q 1406 3038 1543 3061 
Q 1681 3084 1819 3084 
Q 2600 3084 3056 2656 
Q 3513 2228 3513 1497 
Q 3513 744 3044 326 
Q 2575 -91 1722 -91 
Q 1428 -91 1123 -41 
Q 819 9 494 109 
L 494 744 
Q 775 591 1075 516 
Q 1375 441 1709 441 
Q 2250 441 2565 725 
Q 2881 1009 2881 1497 
Q 2881 1984 2565 2268 
Q 2250 2553 1709 2553 
Q 1456 2553 1204 2497 
Q 953 2441 691 2322 
L 691 4666 
z
" transform="scale(0.015625)"/>
      <path id="DejaVuSans-29" d="M 513 4856 
L 1013 4856 
Q 1481 4119 1714 3412 
Q 1947 2706 1947 2009 
Q 1947 1309 1714 600 
Q 1481 -109 1013 -844 
L 513 -844 
Q 928 -128 1133 580 
Q 1338 1288 1338 2009 
Q 1338 2731 1133 3434 
Q 928 4138 513 4856 
z
" transform="scale(0.015625)"/>
     </defs>
     <use xlink:href="#DejaVuSans-28"/>
     <use xlink:href="#DejaVuSans-68" x="39.013672"/>
     <use xlink:href="#DejaVuSans-6f" x="102.392578"/>
     <use xlink:href="#DejaVuSans-6c" x="163.574219"/>
     <use xlink:href="#DejaVuSans-64" x="191.357422"/>
     <use xlink:href="#DejaVuSans-20" x="254.833984"/>
     <use xlink:href="#DejaVuSans-35" x="286.621094"/>
     <use xlink:href="#DejaVuSans-73" x="350.244141"/>
     <use xlink:href="#DejaVuSans-29" x="402.34375"/>
    </g>
   </g>
   <g id="text_11">
    <!-- → GPIO 35 -->
    <g transform="translate(374.7447 89.553469) scale(0.085 -0.085)">
     <use xlink:href="#DejaVuSans-2192"/>
     <use xlink:href="#DejaVuSans-20" x="83.789062"/>
     <use xlink:href="#DejaVuSans-47" x="115.576172"/>
     <use xlink:href="#DejaVuSans-50" x="193.066406"/>
     <use xlink:href="#DejaVuSans-49" x="253.369141"/>
     <use xlink:href="#DejaVuSans-4f" x="282.861328"/>
     <use xlink:href="#DejaVuSans-20" x="361.572266"/>
     <use xlink:href="#DejaVuSans-33" x="393.359375"/>
     <use xlink:href="#DejaVuSans-35" x="456.982422"/>
    </g>
   </g>
   <g id="text_12">
    <!-- 10 kΩ -->
    <g transform="translate(298.916927 81.480266) scale(0.085 -0.085)">
     <use xlink:href="#DejaVuSans-31"/>
     <use xlink:href="#DejaVuSans-30" x="63.623047"/>
     <use xlink:href="#DejaVuSans-20" x="127.246094"/>
     <use xlink:href="#DejaVuSans-6b" x="159.033203"/>
     <use xlink:href="#DejaVuSans-3a9" x="216.943359"/>
    </g>
   </g>
   <g id="patch_8">
    <path d="M 34.1847 90.178 
C 34.972353 90.178 35.727852 89.865062 36.284807 89.308107 
C 36.841762 88.751152 37.1547 87.995653 37.1547 87.208 
C 37.1547 86.420347 36.841762 85.664848 36.284807 85.107893 
C 35.727852 84.550938 34.972353 84.238 34.1847 84.238 
C 33.397047 84.238 32.641548 84.550938 32.084593 85.107893 
C 31.527638 85.664848 31.2147 86.420347 31.2147 87.208 
C 31.2147 87.995653 31.527638 88.751152 32.084593 89.308107 
C 32.641548 89.865062 33.397047 90.178 34.1847 90.178 
z
" clip-path="url(#pe901ad9adc)" style="stroke: #000000; stroke-width: 2; stroke-linejoin: miter"/>
   </g>
   <g id="patch_9">
    <path d="M 172.7847 90.178 
C 173.572353 90.178 174.327852 89.865062 174.884807 89.308107 
C 175.441762 88.751152 175.7547 87.995653 175.7547 87.208 
C 175.7547 86.420347 175.441762 85.664848 174.884807 85.107893 
C 174.327852 84.550938 173.572353 84.238 172.7847 84.238 
C 171.997047 84.238 171.241548 84.550938 170.684593 85.107893 
C 170.127638 85.664848 169.8147 86.420347 169.8147 87.208 
C 169.8147 87.995653 170.127638 88.751152 170.684593 89.308107 
C 171.241548 89.865062 171.997047 90.178 172.7847 90.178 
z
" clip-path="url(#pe901ad9adc)" style="stroke: #000000; stroke-width: 2; stroke-linejoin: miter"/>
   </g>
   <g id="patch_10">
    <path d="M 311.3847 90.178 
C 312.172353 90.178 312.927852 89.865062 313.484807 89.308107 
C 314.041762 88.751152 314.3547 87.995653 314.3547 87.208 
C 314.3547 86.420347 314.041762 85.664848 313.484807 85.107893 
C 312.927852 84.550938 312.172353 84.238 311.3847 84.238 
C 310.597047 84.238 309.841548 84.550938 309.284593 85.107893 
C 308.727638 85.664848 308.4147 86.420347 308.4147 87.208 
C 308.4147 87.995653 308.727638 88.751152 309.284593 89.308107 
C 309.841548 89.865062 310.597047 90.178 311.3847 90.178 
z
" clip-path="url(#pe901ad9adc)" style="stroke: #000000; stroke-width: 2; stroke-linejoin: miter"/>
   </g>
  </g>
 </g>
 <defs>
  <clipPath id="pe901ad9adc">
   <rect x="0" y="-0" width="423.7068" height="188.98"/>
  </clipPath>
 </defs>
</svg>
